<svg width="239" height="146" viewBox="0 0 239 146" fill="none" xmlns="http://www.w3.org/2000/svg">
<path fill-rule="evenodd" clip-rule="evenodd" d="M219.546 87.1423C213.846 74.5873 201.328 66.5173 187.536 66.5173H120.628C119.428 66.5173 118.303 67.1323 117.651 68.1373C116.998 69.1498 116.908 70.4248 117.403 71.5198C123.613 85.1998 140.698 122.85 144.906 132.105C145.483 133.372 146.743 134.182 148.131 134.182H234.613C235.993 134.182 237.276 133.485 238.018 132.322C238.761 131.167 238.873 129.705 238.303 128.452C234.201 119.422 226.026 101.415 219.546 87.1423V87.1423ZM88.3783 49.5973C87.8083 48.3298 86.5408 47.5198 85.1533 47.5198H20.4058C13.4683 47.5198 7.01077 51.0448 3.25327 56.8723C-0.50423 62.6998 -1.04423 70.0423 1.82827 76.3573C9.83827 94.0123 19.4983 115.29 24.5683 126.465C26.6983 131.167 31.3858 134.182 36.5458 134.182H121.273C122.473 134.182 123.598 133.567 124.251 132.562C124.903 131.55 124.993 130.282 124.498 129.18C117.028 112.717 93.3958 60.6523 88.3783 49.5973V49.5973Z" fill="#63A4DA"/>
<path fill-rule="evenodd" clip-rule="evenodd" d="M123.516 28.6872C123.516 28.6872 152.173 47.4522 166.513 64.3047C194.691 97.4247 197.931 105.757 197.931 105.757C202.431 115.335 193.438 126.69 181.558 121.215L163.243 112.792L83.0531 141.952C83.0531 141.952 61.9106 136.155 50.0381 123.915C50.0381 123.915 59.8181 92.5722 81.4856 65.6922C94.9631 48.9747 62.6606 4.46222 71.4581 0.479722C75.0056 -1.11778 123.516 28.6872 123.516 28.6872V28.6872Z" fill="#FFEBE2"/>
<path fill-rule="evenodd" clip-rule="evenodd" d="M118.903 64.6574C118.903 64.6574 123.343 71.8724 135.223 72.4574V64.2974L118.903 64.6574Z" fill="#24245B"/>
<path fill-rule="evenodd" clip-rule="evenodd" d="M83.0531 68.6472C82.9781 68.5047 63.2081 33.3448 57.3656 17.9923C52.7981 5.99229 63.0431 -2.1152 72.3881 0.487297C75.4706 1.3498 81.2156 13.5748 84.8831 20.5423C93.9281 37.7323 104.316 57.4122 104.316 57.4122C105.306 59.2947 101.361 63.3372 95.4881 66.4347C89.6231 69.5322 84.0506 70.5222 83.0531 68.6472Z" fill="#FFEBE2"/>
<path fill-rule="evenodd" clip-rule="evenodd" d="M129.351 24.4273C129.351 24.4273 106.461 53.6773 120.336 66.1648C131.593 76.2973 154.123 50.5723 157.161 43.6498L136.663 22.7773L129.351 24.4273V24.4273Z" fill="#F99382"/>
<path fill-rule="evenodd" clip-rule="evenodd" d="M126.854 28.4548C126.794 29.6773 120.261 39.5473 120.261 39.5473C118.296 37.6423 118.004 31.5073 120.801 27.1873C123.081 23.6698 126.996 25.6798 126.854 28.4548V28.4548Z" fill="#F99382"/>
<path d="M122.323 32.9473C122.541 32.1372 121.536 31.1847 121.101 31.9797" stroke="#24245B" stroke-miterlimit="12.5" stroke-linecap="round" stroke-linejoin="round"/>
<path fill-rule="evenodd" clip-rule="evenodd" d="M155.998 43.3799C157.82 42.8024 162.11 46.3574 155.998 51.1574C151.618 54.5924 148.91 54.8025 147.988 53.9924C147.058 53.1749 155.998 43.3799 155.998 43.3799Z" fill="#F99382"/>
<path fill-rule="evenodd" clip-rule="evenodd" d="M153.186 88.9872C153.186 87.3297 151.844 85.9797 150.179 85.9797H92.9011C91.2436 85.9797 89.8936 87.3222 89.8936 88.9872V145.132H153.186V88.9872Z" fill="#EFC2E9"/>
<path fill-rule="evenodd" clip-rule="evenodd" d="M162.898 92.8498C162.898 91.1923 161.556 89.8423 159.891 89.8423H85.9108C84.2533 89.8423 82.9033 91.1848 82.9033 92.8498V145.125H162.898V92.8498Z" fill="#CC855D"/>
<path fill-rule="evenodd" clip-rule="evenodd" d="M137.428 99.6074C137.428 99.6074 154.063 112.792 162.898 120.33V108.457L137.428 99.6074Z" fill="#3F2207"/>
<path fill-rule="evenodd" clip-rule="evenodd" d="M136.693 61.9648H130.873L144.636 91.1698H150.456L136.693 61.9648V61.9648Z" fill="#3F2207"/>
<path fill-rule="evenodd" clip-rule="evenodd" d="M163.25 112.792L137.638 99.7123C137.638 99.7123 131.721 97.0798 135.238 92.0623C131.766 90.0298 133.131 84.4423 136.258 84.7498C131.541 81.5249 135.403 76.7174 138.523 78.1798L145.94 81.5773L143.675 76.7699C143.675 76.7699 143.188 74.4974 145.94 73.7549C148.46 73.0724 148.985 81.4499 157.37 85.7698L186.53 99.7648L163.25 112.792Z" fill="#F99382"/>
<path fill-rule="evenodd" clip-rule="evenodd" d="M158.121 86.1373C154.229 89.7373 149.669 98.5198 149.474 105.757L162.494 115.507L191.481 100.95L162.494 84.9148L158.121 86.1373V86.1373Z" fill="#FFEBE2"/>
<path fill-rule="evenodd" clip-rule="evenodd" d="M91.8956 59.6247C97.7681 56.5272 103.341 55.5372 104.331 57.4197C105.321 59.3022 101.361 63.3447 95.4881 66.4421C89.6156 69.5396 84.0431 70.5296 83.0531 68.6471C82.0631 66.7646 86.0231 62.7222 91.8956 59.6247Z" fill="#3F2207"/>
<path d="M104.068 57.7722L84.8382 20.4597M83.4058 68.4972L77.3008 57.4197L83.4058 68.4972Z" stroke="#3F2207" stroke-miterlimit="12.5" stroke-linecap="round" stroke-linejoin="round"/>
<path fill-rule="evenodd" clip-rule="evenodd" d="M84.8829 64.6123C86.4804 62.9698 88.9479 61.1773 91.8954 59.6173C95.4354 57.7498 98.8629 56.6472 101.24 56.4897C101.24 56.4897 101.968 58.4998 103.393 60.4348C105.11 62.8048 108.65 65.9848 112.783 66.5173C117.313 67.0948 115.498 73.2898 108.155 70.8898C108.155 70.8898 108.778 72.3448 109.61 74.6623C111.005 78.5548 113.983 87.8698 109.61 88.4098C108.05 88.5973 106.925 87.5473 106.273 84.3598C105.448 80.3398 104.525 79.0198 104.525 79.0198C104.015 81.5323 103.205 84.0823 102.418 85.9873H96.1929L97.3629 81.7873C97.3629 81.7873 95.2704 83.6773 92.0904 81.7873C88.3854 79.5823 82.9329 74.1448 87.8454 71.0773L84.8379 64.6648L84.8454 64.6573L84.8829 64.6123V64.6123Z" fill="#F99382"/>
<path fill-rule="evenodd" clip-rule="evenodd" d="M101.638 57.4198C99.2753 56.5723 87.5228 63.1048 86.3003 67.7698L84.8828 64.6198L91.5878 56.6698L99.7628 55.5598L101.638 55.6873V57.4198Z" fill="#3F2207"/>
<path fill-rule="evenodd" clip-rule="evenodd" d="M131.578 30.4573C128.751 38.9922 138.996 50.7672 147.013 42.8022C151.273 61.3872 165.981 54.1347 164.226 43.0272C173.248 47.8947 177.838 30.9448 164.803 24.0598C172.303 20.3398 162.628 7.37228 149.683 14.3698C139.663 0.0597882 123.778 8.82728 128.773 16.6273C116.286 17.4073 112.303 33.4347 131.578 30.4573V30.4573Z" fill="#3F2207"/>
<path fill-rule="evenodd" clip-rule="evenodd" d="M129.216 41.0774C138.238 41.0774 147.605 48.3974 150.133 57.4199C152.66 66.4424 147.381 73.7624 138.366 73.7624C129.343 73.7624 119.976 66.4424 117.448 57.4199C114.921 48.3974 120.193 41.0774 129.216 41.0774Z" fill="#FFEBE2"/>
<path fill-rule="evenodd" clip-rule="evenodd" d="M144.749 61.9646C144.696 65.6696 141.426 74.5347 132.621 72.8172L127.071 70.7696L144.749 61.9646Z" fill="#24245B"/>
<path fill-rule="evenodd" clip-rule="evenodd" d="M150.456 54.6447C150.456 54.6447 138.959 72.1572 129.291 71.4222H125.181C116.781 65.3397 111.996 56.2572 108.854 45.8022L130.079 32.9397C138.051 39.1722 145.019 46.2597 150.456 54.6447Z" fill="#F99382"/>
<path d="M126.854 64.2972C123.876 63.2397 122.579 59.4147 124.244 56.4822" stroke="#24245B" stroke-miterlimit="12.5" stroke-linecap="round" stroke-linejoin="round"/>
<path fill-rule="evenodd" clip-rule="evenodd" d="M131.549 44.1222C132.299 44.6547 132.254 46.0047 131.451 47.1372C130.649 48.2697 129.381 48.7572 128.631 48.2247C127.881 47.6922 127.926 46.3422 128.729 45.2097C129.531 44.0772 130.799 43.5897 131.549 44.1222ZM144.531 51.6597C145.266 52.2147 145.176 53.5647 144.336 54.6747C143.496 55.7847 142.221 56.2272 141.486 55.6722C140.751 55.1172 140.841 53.7672 141.681 52.6572C142.521 51.5472 143.804 51.0972 144.531 51.6597Z" fill="#24245B"/>
<path d="M137.429 50.2422C137.429 50.2422 133.469 57.5547 131.902 60.4647C131.542 61.1247 130.739 61.3947 130.057 61.0872C129.247 60.7197 128.324 60.2997 128.324 60.2997" stroke="#24245B" stroke-miterlimit="12.5" stroke-linecap="round" stroke-linejoin="round"/>
<path fill-rule="evenodd" clip-rule="evenodd" d="M129.216 41.0771C138.238 41.0771 147.606 48.3971 150.133 57.4196C152.661 66.4421 147.381 73.7621 138.366 73.7621C129.343 73.7621 119.976 66.4421 117.448 57.4196C114.921 48.3971 120.193 41.0771 129.216 41.0771Z" fill="url(#paint0_radial_224_654)"/>
<path d="M127.033 39.3824C127.033 39.3824 131.285 38.4224 133.783 42.8549M123.515 29.1299C123.538 29.6099 122.63 32.6024 121.543 34.7999L123.515 29.1299ZM143.675 47.6174C143.675 47.6174 147.523 46.3499 149.083 50.5349L143.675 47.6174Z" stroke="#24245B" stroke-miterlimit="12.5" stroke-linecap="round" stroke-linejoin="round"/>
<path fill-rule="evenodd" clip-rule="evenodd" d="M129.216 41.0774C138.238 41.0774 147.605 48.3974 150.133 57.4199C152.66 66.4424 147.381 73.7624 138.366 73.7624C129.343 73.7624 119.976 66.4424 117.448 57.4199C114.921 48.3974 120.193 41.0774 129.216 41.0774ZM129.216 42.0149C137.848 42.0149 146.81 49.0349 149.225 57.6749C150.395 61.8674 149.795 65.6774 147.816 68.4299C145.843 71.1599 142.536 72.8249 138.366 72.8249C129.733 72.8249 120.771 65.8049 118.356 57.1649C117.178 52.9724 117.786 49.1624 119.766 46.4099C121.731 43.6799 125.046 42.0149 129.216 42.0149Z" fill="#3F2207"/>
<path d="M108.156 70.8898C108.156 70.8898 106.866 68.2348 105.426 66.5173M136.251 84.7573L143.008 87.7198L136.251 84.7573ZM145.941 81.5773L151.198 83.9848L145.941 81.5773ZM135.231 92.0623L140.158 94.1923L135.231 92.0623ZM96.6957 73.5823C96.6957 73.5823 100.071 79.5598 97.3632 81.7798L96.6957 73.5823ZM87.8457 71.0698L89.8932 75.4198L87.8457 71.0698ZM101.871 70.3423C103.911 74.4673 104.976 77.0548 104.526 79.0123L101.871 70.3423Z" stroke="#3F2207" stroke-miterlimit="12.5" stroke-linecap="round" stroke-linejoin="round"/>
<path d="M161.421 87.8848L186.531 99.7122" stroke="#3F2207" stroke-miterlimit="12.5" stroke-linecap="round" stroke-linejoin="round"/>
<path fill-rule="evenodd" clip-rule="evenodd" d="M140.99 104.205C140.99 103.912 140.87 103.627 140.66 103.417C140.45 103.207 140.165 103.087 139.873 103.087H105.928C105.628 103.087 105.351 103.207 105.141 103.417C104.931 103.627 104.811 103.912 104.811 104.205V112.447C104.811 112.747 104.931 113.025 105.141 113.235C105.351 113.445 105.636 113.565 105.928 113.565H139.873C140.165 113.565 140.45 113.445 140.66 113.235C140.87 113.025 140.99 112.74 140.99 112.447V104.205Z" fill="#EFC2E9"/>
<path fill-rule="evenodd" clip-rule="evenodd" d="M140.991 104.422C140.991 104.422 126.448 105.165 105.966 114.105L104.811 122.032L143.668 117.48L140.991 104.422Z" fill="#C47CB9"/>
<defs>
<radialGradient id="paint0_radial_224_654" cx="0" cy="0" r="1" gradientUnits="userSpaceOnUse" gradientTransform="translate(133.634 60.9865) rotate(14.8) scale(18.0067)">
<stop stop-color="white" stop-opacity="0.15"/>
<stop offset="1" stop-color="white" stop-opacity="0.4"/>
</radialGradient>
</defs>
</svg>
