<svg width="333" height="257" viewBox="0 0 333 257" fill="none" xmlns="http://www.w3.org/2000/svg">
<path fill-rule="evenodd" clip-rule="evenodd" d="M321.181 48.5905C321.181 45.3063 318.531 42.6414 315.265 42.6414H35.5821C32.3162 42.6414 29.666 45.3063 29.666 48.5905V244.239C29.666 247.523 32.3162 250.188 35.5821 250.188H315.265C318.531 250.188 321.181 247.523 321.181 244.239V48.5905Z" fill="#FFEBE2"/>
<path fill-rule="evenodd" clip-rule="evenodd" d="M121.398 257L127.71 211.209L174.027 215.146L220.344 211.209L226.656 257H121.398Z" fill="#3F2207"/>
<path fill-rule="evenodd" clip-rule="evenodd" d="M175.49 235.791L170.311 257H179.492L175.49 235.791Z" fill="#FFEBE2"/>
<path fill-rule="evenodd" clip-rule="evenodd" d="M236.971 133.306L245.834 162.156L271.093 137.696C271.093 137.696 276.91 124.559 272.841 117.736L284.343 109.487L302.169 142.838C302.169 142.838 274.084 170.715 253.74 190.895C249.331 195.274 242.975 197.044 236.949 195.584C230.923 194.113 226.073 189.624 224.138 183.697C217.551 163.527 209.766 139.697 209.766 139.697L236.971 133.306ZM193.293 43.4706C193.293 43.4706 194.887 39.7109 199.462 39.7109C204.036 39.7109 207.039 42.962 206.786 47.927C206.445 54.6834 201.562 60.1571 193.326 56.9503L193.293 43.4706Z" fill="#F99382"/>
<path fill-rule="evenodd" clip-rule="evenodd" d="M153.959 30.4223V61.4067L162.316 75.2955L185.882 75.1186L193.326 55.745L193.304 27.3813L153.959 30.4223Z" fill="#F99382"/>
<path fill-rule="evenodd" clip-rule="evenodd" d="M153.959 43.4706C153.959 43.4706 152.364 39.7109 147.79 39.7109C143.215 39.7109 140.213 42.962 140.466 47.927C140.818 54.6834 145.689 60.1571 153.926 56.9503L153.959 43.4706ZM185.452 76.2022H162.613L161.711 95.2219H186.343L185.452 76.2022Z" fill="#F99382"/>
<path fill-rule="evenodd" clip-rule="evenodd" d="M161.722 91.9709H186.354V114.363H161.722V91.9709Z" fill="#F99382"/>
<path fill-rule="evenodd" clip-rule="evenodd" d="M286.059 106.623L275.623 112.705L297.957 151.739L308.403 145.657L286.059 106.623ZM236.355 9.30155L220.96 5L216.957 20.6138L273.083 113.888L288.346 104.997L236.355 9.30155Z" fill="#63A4DA"/>
<path fill-rule="evenodd" clip-rule="evenodd" d="M294.669 94.9014L261.262 114.363L267.002 124.404L300.409 104.942L294.669 94.9014Z" fill="#63A4DA"/>
<path d="M220.96 5L277.965 104.643" stroke="white" stroke-width="8.333" stroke-miterlimit="12.5" stroke-linecap="round" stroke-linejoin="round"/>
<path d="M182.56 51.3328C183.295 51.3328 183.891 50.5754 183.891 49.641C183.891 48.7066 183.295 47.9491 182.56 47.9491C181.825 47.9491 181.229 48.7066 181.229 49.641C181.229 50.5754 181.825 51.3328 182.56 51.3328Z" fill="#24245B"/>
<path d="M165.516 51.3328C166.245 51.3328 166.836 50.5754 166.836 49.641C166.836 48.7066 166.245 47.9491 165.516 47.9491C164.787 47.9491 164.196 48.7066 164.196 49.641C164.196 50.5754 164.787 51.3328 165.516 51.3328Z" fill="#24245B"/>
<path d="M198.637 48.8338C199.77 48.1261 201.727 48.1261 203.19 48.4136M178.602 43.9572C178.602 43.9572 184.012 41.7456 187.058 42.6303L178.602 43.9572ZM161.282 44.2668C161.282 44.2668 165.208 42.6081 169.738 43.8466L161.282 44.2668ZM173.345 46.0029C173.345 46.0029 172.576 54.1748 172.334 56.7291C172.29 57.1493 172.587 57.5253 173.004 57.5917C173.675 57.6912 174.544 57.8239 174.544 57.8239L173.345 46.0029ZM200.847 45.0519C198.934 47.2193 198.076 49.7626 197.944 52.5713L200.847 45.0519Z" stroke="#3F2207" stroke-width="3" stroke-miterlimit="12.5" stroke-linecap="round" stroke-linejoin="round"/>
<path d="M148.582 48.8338C147.449 48.1261 145.492 48.1261 144.029 48.4136M146.372 45.052C148.285 47.2194 149.143 49.7627 149.275 52.5714L146.372 45.052Z" stroke="#3F2207" stroke-width="3" stroke-miterlimit="12.5" stroke-linecap="round" stroke-linejoin="round"/>
<path fill-rule="evenodd" clip-rule="evenodd" d="M173.62 221.36C138.3 221.294 121.365 212.823 121.365 212.823L126.478 141.378C115.262 139.863 106.377 133.283 106.377 133.283C109.885 118.842 115.746 109.553 119.023 105.174C120.485 103.25 122.311 101.625 124.4 100.408C137.816 92.557 153.958 89.9031 153.958 89.9031L174.038 95.2109L194.117 89.9031C194.117 89.9031 210.26 92.557 223.676 100.408C225.754 101.625 227.591 103.25 229.053 105.174C232.341 109.542 238.191 118.831 241.699 133.283C241.699 133.283 232.814 139.863 221.597 141.378L226.711 212.823C226.711 212.823 209.644 221.36 174.038 221.36H173.62Z" fill="#CC855D"/>
<path fill-rule="evenodd" clip-rule="evenodd" d="M221.598 141.389L220.399 125.222L225.919 140.46L221.598 141.389Z" fill="#3F2207"/>
<path fill-rule="evenodd" clip-rule="evenodd" d="M162.173 85.7122L174.038 95.222C174.038 95.222 167.473 101.702 164.713 104.422C164.394 104.732 163.965 104.898 163.525 104.887C163.085 104.876 162.667 104.677 162.37 104.334C158.72 100.099 155.883 95.3105 153.947 89.9142L162.173 85.7122ZM185.903 85.7122L174.038 95.222C174.038 95.222 180.679 101.779 183.407 104.478C183.714 104.787 184.132 104.953 184.561 104.942C184.99 104.931 185.408 104.754 185.705 104.433C189.543 100.309 192.457 95.5427 194.117 89.9142L185.903 85.7122Z" fill="#3F2207"/>
<path fill-rule="evenodd" clip-rule="evenodd" d="M172.828 81.3C201.254 81.3 194.535 44.3 194.535 44.3C198.67 36.0066 199.231 30.7208 199.154 28.1665C199.11 26.8837 198.483 25.6895 197.438 24.9375C195.008 23.1904 191.599 22.3942 191.599 22.3942C191.599 22.3942 186.189 6.59236 163.69 10.9934C162.987 11.1372 162.327 11.4357 161.777 11.8891C156.807 16.0469 153.585 23.0024 153.585 23.0024C153.585 23.0024 151.078 24.2188 149.439 26.1097C149.098 26.5078 148.911 27.0275 148.922 27.5472C148.944 30.168 149.296 38.5167 152.661 44.6649C152.65 44.6871 145.294 81.3 172.828 81.3ZM192.16 44.1342C192.16 44.1342 186.574 40.3745 186.574 30.5882C186.574 30.5882 172.488 44.2779 156.4 39.2687C156.4 39.2687 151.99 55.0152 159.864 62.9769C159.864 62.9769 171.63 53.8209 187.817 62.9769C187.828 62.9769 191.984 61.1524 192.16 44.1342Z" fill="#3F2207"/>
<path d="M180.801 64.8457C180.801 64.8457 179.448 70.0319 174.038 70.1204" stroke="#EA9887" stroke-width="2" stroke-miterlimit="12.5" stroke-linecap="round" stroke-linejoin="round"/>
<path fill-rule="evenodd" clip-rule="evenodd" d="M87.1003 92.4905C114.679 87.4702 142.511 113.81 149.219 151.275C155.927 188.739 138.981 223.251 111.402 228.282C83.8233 233.314 55.9914 206.963 49.2836 169.498C42.5757 132.034 59.5212 97.5219 87.1003 92.4905Z" fill="#63A4DA"/>
<path fill-rule="evenodd" clip-rule="evenodd" d="M85.5385 102.465C85.5385 102.465 66.2837 151.12 106.487 219.491L85.5385 102.465Z" fill="#63A4DA"/>
<path d="M85.5385 102.465C85.5385 102.465 66.2837 151.12 106.487 219.491" stroke="white" stroke-width="8.333" stroke-miterlimit="12.5" stroke-linecap="round" stroke-linejoin="round"/>
<path fill-rule="evenodd" clip-rule="evenodd" d="M284.244 126.206C285.871 128.352 288.719 127.644 289.797 126.98C289.797 126.98 286.685 130.541 288.489 133.626C289.885 136.015 293.173 135.086 294.383 134.046C294.383 134.046 291.754 136.911 293.91 139.553C297.088 143.446 302.542 137.795 303.4 136.944L305.137 139.985C305.137 139.985 311.922 134.146 307.699 128.672C306.061 126.538 304.444 126.903 304.444 126.903C304.444 126.903 307.161 124.415 304.84 121.031C302.817 118.09 300.662 119.185 300.662 119.185C300.662 119.185 303.664 115.911 301.057 112.472C298.451 109.033 291.908 112.063 288.17 115.558C286.784 116.862 285.168 118.333 284.134 119.959C282.935 121.838 282.539 123.951 284.244 126.206Z" fill="#F99382"/>
<path d="M289.809 126.981C289.809 126.981 293.239 122.292 300.662 119.174M245.834 162.156L241.699 166.059L245.834 162.156ZM302.839 137.552L304.445 135.761L302.839 137.552ZM294.394 134.058C294.394 134.058 298.32 129.413 304.456 126.903L294.394 134.058Z" stroke="#3F2207" stroke-width="2" stroke-miterlimit="12.5" stroke-linecap="round" stroke-linejoin="round"/>
<path d="M42.7956 59.7701C45.401 59.7701 47.5131 57.6363 47.5131 55.0041C47.5131 52.372 45.401 50.2382 42.7956 50.2382C40.1902 50.2382 38.0781 52.372 38.0781 55.0041C38.0781 57.6363 40.1902 59.7701 42.7956 59.7701Z" fill="white"/>
<path d="M58.2233 59.7701C60.8287 59.7701 62.9408 57.6363 62.9408 55.0041C62.9408 52.372 60.8287 50.2382 58.2233 50.2382C55.6179 50.2382 53.5059 52.372 53.5059 55.0041C53.5059 57.6363 55.6179 59.7701 58.2233 59.7701Z" fill="white"/>
<path d="M73.3991 59.7701C76.0045 59.7701 78.1166 57.6363 78.1166 55.0041C78.1166 52.372 76.0045 50.2382 73.3991 50.2382C70.7937 50.2382 68.6816 52.372 68.6816 55.0041C68.6816 57.6363 70.7937 59.7701 73.3991 59.7701Z" fill="white"/>
<path fill-rule="evenodd" clip-rule="evenodd" d="M332.518 206.299C335.179 192.532 326.558 178.997 312.912 175.812C299.265 172.628 285.629 180.977 282.034 194.523H282.023C282.023 194.523 273.116 233.391 271.697 239.584C271.642 239.805 271.686 240.037 271.818 240.225C271.939 240.413 272.137 240.546 272.368 240.579C277.503 241.442 281.088 239.086 282.66 238.334C284.178 237.616 288.071 234.928 293.668 236.233C299.265 237.538 301.585 241.641 302.784 243.023C303.971 244.405 306.303 248.508 311.9 249.812C316.683 250.929 320.059 249.215 322.115 248.187C322.698 247.911 323.127 247.369 323.27 246.738C324.722 240.391 332.54 206.288 332.54 206.288L332.518 206.299Z" fill="#FF7EAD"/>
<path fill-rule="evenodd" clip-rule="evenodd" d="M318.552 197.674C315.77 197.022 312.977 198.78 312.339 201.589C311.691 204.397 313.439 207.206 316.221 207.858C319.003 208.511 321.796 206.753 322.434 203.944C323.083 201.135 321.346 198.326 318.552 197.674ZM298.363 192.963C295.581 192.311 292.788 194.069 292.15 196.878C291.501 199.687 293.25 202.506 296.032 203.148C298.814 203.8 301.607 202.042 302.245 199.233C302.883 196.425 301.145 193.605 298.363 192.963Z" fill="#EFC2E9"/>
<path fill-rule="evenodd" clip-rule="evenodd" d="M20.66 206.012C32.954 204.165 43.6975 207.77 44.6212 214.073C45.5559 220.376 36.3189 226.989 24.0249 228.835C11.7309 230.682 0.98743 227.077 0.0637313 220.774C-0.859967 214.482 8.36602 207.858 20.66 206.012ZM39.9697 182.569C50.3943 180.999 59.4993 184.062 60.2911 189.403C61.0828 194.744 53.2534 200.35 42.8288 201.92C32.4042 203.49 23.2992 200.427 22.5074 195.086C21.7267 189.745 29.5451 184.128 39.9697 182.569ZM66.702 213.929C77.8194 212.259 87.5182 215.522 88.3649 221.216C89.2116 226.911 80.8654 232.894 69.748 234.563C58.6306 236.233 48.9318 232.971 48.0851 227.276C47.2493 221.581 55.5956 215.599 66.702 213.929Z" fill="#FF7EAD"/>
<path fill-rule="evenodd" clip-rule="evenodd" d="M18.3838 213.542C20.6381 213.199 22.8594 215.643 23.3542 218.994C23.8491 222.344 22.4195 225.33 20.1763 225.673C17.922 226.016 15.7007 223.572 15.2059 220.221C14.711 216.871 16.1296 213.874 18.3838 213.542ZM38.0454 188.949C39.9478 188.662 41.8392 190.73 42.2571 193.572C42.6749 196.413 41.4653 198.946 39.5629 199.233C37.6496 199.521 35.7692 197.453 35.3513 194.611C34.9225 191.769 36.1321 189.237 38.0454 188.949ZM64.6458 220.73C66.6801 220.42 68.6925 222.632 69.1433 225.651C69.5942 228.681 68.2966 231.379 66.2623 231.688C64.2279 231.998 62.2156 229.786 61.7647 226.768C61.3249 223.738 62.6114 221.04 64.6458 220.73Z" fill="#EFC2E9"/>
</svg>
