<svg width="358" height="250" viewBox="0 0 358 250" fill="none" xmlns="http://www.w3.org/2000/svg">
<path fill-rule="evenodd" clip-rule="evenodd" d="M76.3159 1.66015C87.2765 -3.80148 102.544 4.65557 110.381 20.5313C118.219 36.397 115.683 53.7104 104.722 59.1721C93.7614 64.6237 78.4941 56.1767 70.6565 40.301C62.8189 24.4353 65.3453 7.11181 76.3159 1.66015ZM340.217 180.027C340.903 183.851 334.747 188.185 326.472 189.692C318.196 191.2 310.916 189.313 310.22 185.489C309.533 181.665 315.69 177.331 323.965 175.823C332.24 174.326 339.521 176.203 340.217 180.027Z" fill="#FFF0E9"/>
<path fill-rule="evenodd" clip-rule="evenodd" d="M251.308 66.2013C274.901 54.4094 292.913 12.2839 322.752 7.34152C354.758 2.04963 371.876 44.5345 343.907 90.3044C314.059 139.13 227 139.589 219.222 112.331C211.235 84.3236 232.829 75.4372 251.308 66.2013ZM40.092 99.4504C60.2131 92.0417 101.569 90.2745 126.892 146.418C149.032 195.503 181.039 176.402 189.871 201.784C201.488 235.162 121.044 274.083 40.092 228.762C-9.0121 201.264 -17.5459 120.658 40.092 99.4504Z" fill="#FFEBE2"/>
<path fill-rule="evenodd" clip-rule="evenodd" d="M179.389 134.706C179.389 134.706 178.444 137.462 175.192 139.839C173.461 141.097 174.794 143.223 176.634 142.924C176.634 142.924 175.789 143.673 174.505 144.002C172.616 144.492 173.053 146.608 174.675 146.758C175.808 146.858 176.584 146.668 177.559 146.129C177.559 146.129 178.912 147.467 181.239 146.129C181.239 146.129 185.576 147.417 188.788 139.819C188.798 139.819 182.154 133.229 179.389 134.706Z" fill="#F99382"/>
<path fill-rule="evenodd" clip-rule="evenodd" d="M209.555 212.078L212.509 218.458C208.789 222.492 206.81 233.405 212.509 235.692C214.617 236.541 216.835 235.961 218.785 234.773C222.057 232.766 224.603 229.032 224.693 227.444L219.809 207.565L209.555 212.078Z" fill="#3F2207"/>
<path fill-rule="evenodd" clip-rule="evenodd" d="M233.416 231.528L233.953 250H210.47C210.47 250 209.048 239.516 220.774 239.007L221.202 231.678L233.416 231.528Z" fill="#3F2207"/>
<path fill-rule="evenodd" clip-rule="evenodd" d="M277.686 231.528V250H249.648C249.648 250 247.947 239.516 261.951 239.007L263.115 231.678L277.686 231.528Z" fill="#FF7EAD"/>
<path fill-rule="evenodd" clip-rule="evenodd" d="M262.718 234.334C262.718 234.334 268.228 236.91 277.746 235.842L278.84 231.838L262.678 232.107L262.718 234.334Z" fill="#3F2207"/>
<path fill-rule="evenodd" clip-rule="evenodd" d="M296.097 231.528V250H324.135C324.135 250 325.836 239.516 311.831 239.007L310.668 231.678L296.097 231.528Z" fill="#FF7EAD"/>
<path fill-rule="evenodd" clip-rule="evenodd" d="M311.095 234.334C311.095 234.334 305.635 237 296.096 236.091L294.933 232.107H311.095V234.334Z" fill="#3F2207"/>
<path fill-rule="evenodd" clip-rule="evenodd" d="M259.197 138.661C259.197 138.661 255.994 144.572 256.969 148.366C257.486 150.373 261.852 152.38 264.577 153.977L265.303 138.661C265.294 138.661 262.837 135.455 259.197 138.661Z" fill="#F99382"/>
<path fill-rule="evenodd" clip-rule="evenodd" d="M203.578 125.241C203.578 125.241 191.254 165.399 191.97 174.086C192.687 182.773 208.073 213.356 208.073 213.356C208.073 213.356 217.532 213.845 222.555 206.996L211.405 174.076L219.81 145.5L237.345 126.369L203.578 125.241Z" fill="#EFC2E9"/>
<path fill-rule="evenodd" clip-rule="evenodd" d="M214.638 183.661C216.935 202.303 207.616 212.477 205.647 208.443V218.877L227.1 211.928C227.1 211.928 214.011 178.549 214.638 183.661ZM202.951 127.308C202.951 127.308 214.936 132.41 237.265 129.574L237.345 126.379C237.345 126.379 205.448 122.305 203.23 126.379L202.951 127.308Z" fill="#3F2207"/>
<path fill-rule="evenodd" clip-rule="evenodd" d="M234.6 232.637L237.345 126.379L216.12 135.256L218.129 232.637C224.196 234.024 228.971 234.024 234.6 232.637Z" fill="#EFC2E9"/>
<path fill-rule="evenodd" clip-rule="evenodd" d="M202.951 127.308C202.951 127.308 214.936 132.41 237.265 129.574L237.345 126.379C237.345 126.379 205.448 122.305 203.23 126.379L202.951 127.308Z" fill="#3F2207"/>
<path fill-rule="evenodd" clip-rule="evenodd" d="M216.12 135.266C216.12 135.266 214.807 155.984 212.848 169.154L216.647 156.253L216.12 135.266Z" fill="#3F2207"/>
<path fill-rule="evenodd" clip-rule="evenodd" d="M148.287 229.691V250H175.032C175.032 250 176.305 239.007 161.874 239.007L162.878 229.841L148.287 229.691Z" fill="#FF7EAD"/>
<path fill-rule="evenodd" clip-rule="evenodd" d="M165.812 232.287C165.812 232.287 160.183 234.564 150.724 233.006L149.839 228.952L165.962 230.08L165.812 232.287Z" fill="#3F2207"/>
<path fill-rule="evenodd" clip-rule="evenodd" d="M151.49 229.691V250H124.745C124.745 250 123.631 239.446 135.745 239.007L136.909 229.841L151.49 229.691Z" fill="#FF7EAD"/>
<path fill-rule="evenodd" clip-rule="evenodd" d="M136.501 233.106C136.501 233.106 142.071 235.522 151.559 234.194L152.544 230.16L136.401 230.879L136.501 233.106Z" fill="#3F2207"/>
<path fill-rule="evenodd" clip-rule="evenodd" d="M151.4 239.127L151.49 250H161.505C154.891 248.752 152.425 243.54 151.4 239.127ZM80.9615 229.541L79.1314 250H104.046C104.046 250 106.314 239.516 93.9014 239.007V229.681L80.9615 229.541ZM56.2453 161.286L40.3414 152.649C36.1939 150.373 24.7558 172.299 32.3049 177.221C32.3049 177.221 39.1876 181.565 44.857 170.961L50.6854 174.016L56.2453 161.286Z" fill="#3F2207"/>
<path fill-rule="evenodd" clip-rule="evenodd" d="M106.473 122.415L98.3872 231.528C98.3872 231.528 87.0983 234.364 78.7336 229.691L81.8169 175.714C79.5591 183.292 70.2595 189.622 61.477 184.61C51.0435 178.659 41.9428 172.019 41.9428 172.019C41.9428 172.019 40.2122 162.724 50.1981 156.253L61.4671 162.124L69.1157 123.673L106.473 122.415Z" fill="#EFC2E9"/>
<path fill-rule="evenodd" clip-rule="evenodd" d="M67.9316 124.742C67.9316 124.742 85.8447 135.955 106.473 128.256L107.945 121.277L67.9416 122.156V124.742H67.9316Z" fill="#3F2207"/>
<path fill-rule="evenodd" clip-rule="evenodd" d="M216.876 36.5169C216.21 35.1291 209.506 38.4839 211.366 48.9678C211.366 48.9678 211.634 51.9732 210.968 53.1914C206.154 54.3396 200.435 61.239 205.657 70.0056L221.461 69.4864L216.876 36.5169ZM103.878 32.1836C103.878 32.1836 104.852 30.7058 103.878 29.7673C101.689 27.6405 90.6294 24.4654 84.7015 31.6744C80.4644 36.8364 79.7881 37.6053 77.0728 41.2297C72.4578 47.3903 73.3131 52.772 80.1561 56.0769C80.1959 57.4049 78.9824 59.0124 85.7757 61.0793C85.7757 61.0793 102.634 65.5923 108.771 56.8158C108.771 56.8158 106.096 53.1514 105.996 48.7182C105.907 44.4548 106.503 40.5008 106.503 40.5008C106.503 40.5008 107.886 34.3902 103.878 32.1836Z" fill="#3F2207"/>
<path d="M61.4669 117.583C65.6911 117.583 69.1155 114.641 69.1155 111.013C69.1155 107.384 65.6911 104.443 61.4669 104.443C57.2427 104.443 53.8184 107.384 53.8184 111.013C53.8184 114.641 57.2427 117.583 61.4669 117.583Z" fill="#3F2207"/>
<path fill-rule="evenodd" clip-rule="evenodd" d="M166.776 116.235C169.75 127.068 173.182 168.595 172.665 175.704C172.008 184.66 166.11 219.986 164.19 230.939C164.19 230.939 160.5 232.646 153.737 230.939C153.737 230.939 141.971 232.886 133.775 230.939C133.775 230.939 130.384 144.152 130.264 128.895C130.205 121.627 130.931 120.239 131.756 116.235C132.572 112.231 157.188 106.849 166.776 116.235Z" fill="#63A4DA"/>
<path d="M156.721 137.782L153.538 227.245" stroke="#3F2207" stroke-miterlimit="12.5" stroke-linecap="round" stroke-linejoin="round"/>
<path fill-rule="evenodd" clip-rule="evenodd" d="M255.397 137.812L254.153 138.77L265.343 153.448L266.586 152.489L255.397 137.812Z" fill="#63A4DA"/>
<path fill-rule="evenodd" clip-rule="evenodd" d="M261.494 142.465C260.738 143.713 259.107 148.286 262.121 148.725C263.513 148.925 263.324 146.019 265.005 144.711" fill="#F99382"/>
<path d="M261.494 142.465C260.738 143.713 259.107 148.286 262.121 148.725C263.513 148.925 263.324 146.019 265.005 144.711" stroke="#3F2207" stroke-miterlimit="12.5" stroke-linecap="round" stroke-linejoin="round"/>
<path fill-rule="evenodd" clip-rule="evenodd" d="M265.294 127.767L259.505 232.117C259.505 232.117 268.536 235.233 278.84 232.637L284.45 178.21L293.232 232.637C293.232 232.637 301.497 235.932 312.747 232.637L303.507 126.379C303.517 126.379 286.529 118.511 265.294 127.767Z" fill="#CC855D"/>
<path fill-rule="evenodd" clip-rule="evenodd" d="M284.449 178.21L278.84 143.773L282.371 198.369C284.539 194.914 284.967 187.616 284.449 178.21ZM263.881 128.895C263.881 128.895 271.878 133.359 290.686 135.256C290.686 135.256 293.988 141.716 302.392 141.506L308.181 146.409L311.105 123.663L266.586 121.277L263.881 128.895Z" fill="#3F2207"/>
<path fill-rule="evenodd" clip-rule="evenodd" d="M222.893 34.0606C222.893 34.0606 222.007 26.7019 228.453 25.7234C234.261 24.8348 235.564 32.9823 229.169 36.2972C229.159 36.2972 225.578 33.9408 222.893 34.0606Z" fill="#3F2207"/>
<path fill-rule="evenodd" clip-rule="evenodd" d="M77.5499 64.6638C77.5499 64.6638 70.1201 67.0002 66.3107 71.693C62.4516 76.4558 55.0119 98.0626 55.738 97.803L66.3107 114.997V123.254C66.3107 123.254 90.5992 133.139 108.174 123.663L109.288 100.01L114.569 106.889L120.408 85.9312C120.408 85.9312 114.888 75.0279 112.521 71.693C111.277 69.9357 109.606 68.9972 107.925 68.0586L77.5499 64.6638Z" fill="#63A4DA"/>
<path fill-rule="evenodd" clip-rule="evenodd" d="M111.118 86.5603C113.097 94.6878 113.077 96.0358 109.298 100.01L117.145 110.244C117.135 110.254 118.637 101.517 111.118 86.5603Z" fill="#3F2207"/>
<path d="M202.205 79.0917C202.205 79.0917 198.127 90.9935 198.595 95.227C198.933 98.2623 201.708 100.669 202.205 102.057C202.374 102.536 202.345 111.302 202.285 118.142" stroke="#282845" stroke-width="4.1667" stroke-miterlimit="12.5" stroke-linecap="round" stroke-linejoin="round"/>
<path fill-rule="evenodd" clip-rule="evenodd" d="M142.936 62.3374C142.936 62.3374 132.502 63.9349 126.674 68.478C119.91 73.7499 109.805 102.476 113.217 113.309C116.549 123.913 125.46 120.708 131.717 116.265H167.274C167.274 116.265 168.229 118.122 170.367 93.4897L180.493 100.01C180.493 100.01 188.33 106.02 195.133 100.01L210.46 73.5202H203.568L188.788 84.803L178.832 73.5202C174.694 69.6062 172.983 66.2713 157.925 61.8381L142.936 62.3374Z" fill="#CC855D"/>
<path fill-rule="evenodd" clip-rule="evenodd" d="M166.777 64.9034L164.052 118.941H161.366L164.191 63.885C164.191 63.885 165.762 62.1776 166.777 64.9034ZM138.619 61.8381L143.384 118.541L140.648 118.032L136.023 62.3373C136.023 62.3373 137.247 59.272 138.619 61.8381Z" fill="#63A4DA"/>
<path fill-rule="evenodd" clip-rule="evenodd" d="M170.363 93.5266L171.158 83.5818L175.027 96.522C172.7 95.1241 172.75 95.1241 170.363 93.5266ZM157.472 96.8015C157.472 96.8015 143.99 117.014 140.807 121.008C140.807 121.008 136.605 118.798 131.771 116.332L133.751 109.163L157.472 96.8015Z" fill="#3F2207"/>
<path fill-rule="evenodd" clip-rule="evenodd" d="M202.285 118.142C202.245 122.605 202.205 126.259 202.205 126.259C202.205 126.259 217.383 128.826 238.369 126.259L239.921 95.227L244.247 78.5925C244.247 78.5925 245.511 69.746 228.463 66.5609H216.12C216.12 66.5609 203.07 68.9672 200.325 74.6585C197.033 81.488 189.643 106.659 187.803 110.863C185.963 115.067 177.449 135.276 177.449 135.276C177.449 135.276 179.906 142.624 191.354 142.475C191.354 142.465 197.859 130.463 202.285 118.142Z" fill="#63A4DA"/>
<path d="M202.285 118.142L202.205 98.6117C199.261 95.2069 198.038 92.0917 203.578 80.769" stroke="#3F2207" stroke-miterlimit="12.5" stroke-linecap="round" stroke-linejoin="round"/>
<path fill-rule="evenodd" clip-rule="evenodd" d="M217.492 36.1774C212.638 39.3725 206.144 59.4318 216.428 62.577C216.428 62.577 215.891 66.2314 215.294 68.7975C214.2 73.5003 223.291 75.3874 228.662 67.0401L234.59 52.8519L232.849 42.6275L217.492 36.1774Z" fill="#F99382"/>
<path fill-rule="evenodd" clip-rule="evenodd" d="M216.428 62.577C216.428 62.577 219.343 63.4357 222.774 61.5885C222.774 61.5885 221.123 65.842 215.921 65.6423C215.931 65.6423 214.419 63.266 216.428 62.577Z" fill="#3F2207"/>
<path d="M229.935 51.2743C229.935 51.2743 231.705 50.9847 232.332 50.1061M218.785 46.2919C218.785 46.2919 217.184 50.3557 216.875 51.3342C216.696 51.8933 217.154 52.2628 217.502 52.3826L218.785 46.2919ZM221.828 42.6275C221.828 42.6275 224.335 40.7204 226.762 43.2765L221.828 42.6275ZM214.12 42.2481C214.12 42.2481 216.338 40.7803 218.128 42.3379L214.12 42.2481ZM230.293 48.7282C230.293 48.7282 230.332 51.1245 229.159 53.1514L230.293 48.7282Z" stroke="#3F2207" stroke-miterlimit="12.5" stroke-linecap="round" stroke-linejoin="round"/>
<path fill-rule="evenodd" clip-rule="evenodd" d="M217.045 35.4486C216.239 37.6851 218 42.2681 226.186 43.2766C226.186 43.2766 227.2 46.2221 228.493 47.4102C228.493 47.4102 231.188 45.1537 233.088 47.9494C234.978 50.7451 232.621 56.0171 227.906 55.378C224.435 57.1154 223.013 65.842 231.547 67.7591C234.232 68.3582 236.092 69.2168 236.828 69.4964C243.989 72.2322 249.161 56.8757 236.828 51.8734C233.406 50.4855 237.872 42.318 230.98 36.1974C224.932 30.8256 217.95 32.9424 217.045 35.4486Z" fill="#3F2207"/>
<path fill-rule="evenodd" clip-rule="evenodd" d="M232.013 82.4366C232.013 82.4366 223.211 73.051 227.786 70.7845C227.786 70.7845 228.333 68.478 230.849 68.5479C230.849 68.5479 233.177 64.0947 236.37 68.9572C236.648 67.4595 238.458 64.2145 240.617 64.2045C241.731 64.1945 242.069 65.6224 241.323 66.7506C240.04 68.7276 239.334 71.4135 239.851 72.4519C240.477 73.71 241.213 74.379 242.327 75.9266L232.013 82.4366Z" fill="#F99382"/>
<path fill-rule="evenodd" clip-rule="evenodd" d="M215.642 45.1936C216.05 45.1137 216.339 45.573 216.299 46.2021C216.259 46.8411 215.891 47.4102 215.483 47.4901C215.076 47.57 214.787 47.1107 214.827 46.4816C214.877 45.8526 215.235 45.2735 215.642 45.1936ZM223.41 45.4632C223.818 45.3833 224.107 45.8426 224.067 46.4717C224.027 47.1107 223.659 47.6898 223.261 47.7597C222.853 47.8396 222.565 47.3803 222.605 46.7512C222.645 46.1222 223.013 45.5431 223.41 45.4632Z" fill="#3F2207"/>
<path fill-rule="evenodd" clip-rule="evenodd" d="M217.074 55.6475C217.074 55.6475 220.217 55.7474 222.535 54.0699C222.535 54.0699 222.893 57.6045 219.869 58.0638C217.223 58.4632 217.134 55.7274 217.074 55.6475Z" fill="white"/>
<path d="M217.124 218.458C217.124 218.458 214.578 219.397 212.509 218.458M179.836 142.924C179.836 142.924 182.701 144.312 185.128 143.094L179.836 142.924ZM177.569 146.129C177.569 146.129 179.428 144.971 180.662 143.433L177.569 146.129ZM176.644 142.924C176.644 142.924 178.096 142.744 179.836 140.847L176.644 142.924ZM181.249 146.129C181.249 146.129 182.293 145.38 183.099 144.272L181.249 146.129ZM211.395 174.086L210.411 177.331L211.395 174.086Z" stroke="#282845" stroke-miterlimit="12.5" stroke-linecap="round" stroke-linejoin="round"/>
<path fill-rule="evenodd" clip-rule="evenodd" d="M276.493 63.3158C276.493 63.3158 265.751 66.1116 263.086 76.6654C260.42 87.2192 259.117 131.072 258.262 138.471C258.262 138.471 262.429 139.509 265.304 138.69L265.652 127.827C265.652 127.827 280.024 130.173 303.527 127.827L309.484 128.576C309.484 128.576 310.191 128.696 311.315 128.576C311.315 128.576 325.05 105.401 326.92 101.348C329.476 95.7861 327.815 92.6209 325.965 89.6754C323.628 85.9511 313.224 71.3735 311.315 69.4864C308.729 66.9403 304.939 63.2959 289.99 61.4387L276.493 63.3158ZM308.181 96.2254L307.575 104.153L310.867 98.8813L308.181 96.2254Z" fill="#EFC2E9"/>
<path fill-rule="evenodd" clip-rule="evenodd" d="M295.35 98.1925C294.982 97.853 294.495 97.6833 293.998 97.7332C293.5 97.7731 293.043 98.0327 292.745 98.4221C289.771 102.306 282.013 112.431 279.148 116.165C278.551 116.944 278.691 118.062 279.466 118.671C284.459 122.545 301.308 135.635 306.311 139.519C306.689 139.809 307.156 139.938 307.624 139.878C308.091 139.819 308.519 139.569 308.808 139.2C311.453 135.765 318.187 127.028 320.743 123.713C321.31 122.974 321.22 121.926 320.534 121.297C316.028 117.163 300.214 102.656 295.35 98.1925Z" fill="#63A4DA"/>
<path fill-rule="evenodd" clip-rule="evenodd" d="M299.956 118.821C299.956 118.821 299.409 120.718 298.325 121.277C296.892 122.026 295.311 122.875 294.625 122.964C293.232 123.144 290.089 123.184 290.089 123.184C290.089 123.184 289.274 126.859 294.277 126.379C294.277 126.379 291.104 130.054 290.855 131.981C290.706 133.149 292.148 134.397 294.028 134.038C294.028 134.038 293.879 137.183 297.867 136.364C297.867 136.364 299.757 138.401 302.522 136.584C305.267 134.786 310.161 127.308 310.161 127.308L299.956 118.821Z" fill="#F99382"/>
<path fill-rule="evenodd" clip-rule="evenodd" d="M265.294 84.803L262.121 126.879C262.121 126.879 263.434 127.468 265.642 127.817" fill="#EFC2E9"/>
<path d="M265.294 84.803L262.121 126.879C262.121 126.879 263.434 127.468 265.642 127.817" stroke="#3F2207" stroke-miterlimit="12.5" stroke-linecap="round" stroke-linejoin="round"/>
<path fill-rule="evenodd" clip-rule="evenodd" d="M305.476 107.488L298.314 118.931C298.314 118.931 299.518 125.58 311.294 128.566L317.312 118.341" fill="#EFC2E9"/>
<path fill-rule="evenodd" clip-rule="evenodd" d="M302.383 90.3044L308.171 96.2254L307.774 101.338L302.383 90.3044Z" fill="#3F2207"/>
<path d="M310.857 98.8814L304.392 109.216M312.746 95.866L310.857 98.8814L312.746 95.866Z" stroke="#282845" stroke-miterlimit="12.5" stroke-linecap="round" stroke-linejoin="round"/>
<path fill-rule="evenodd" clip-rule="evenodd" d="M139.584 39.5523C135.933 42.6276 138.549 49.0178 142.935 49.2075C142.935 49.2075 143.562 58.2636 142.935 62.3374C144.179 67.7391 159.725 72.8713 157.984 62.3374L157.278 55.3481L162.39 47.4103C162.39 47.4103 161.744 39.8019 160.073 34.0607C153.767 30.1467 149.719 32.0538 145.233 32.8525L139.584 39.5523Z" fill="#F99382"/>
<path fill-rule="evenodd" clip-rule="evenodd" d="M148.059 57.3949C148.059 57.3949 150.575 63.4556 158.064 62.8764C158.064 62.8764 160.143 61.6384 157.517 57.7044L148.059 57.3949Z" fill="#F99382"/>
<path fill-rule="evenodd" clip-rule="evenodd" d="M145.651 49.2075L144.268 39.5523C144.268 39.5523 141.871 37.8748 139.594 39.5523C139.594 39.5523 137.405 34.8495 137.316 34.0507C137.226 33.2519 139.594 32.2734 139.594 32.2734C139.594 32.2734 137.455 28.8786 141.235 27.6705C142.528 25.1144 155.637 22.3386 158.044 26.682C159.943 27.2112 161.435 26.1828 160.083 34.0407C160.083 34.0407 153.836 32.2235 146.576 35.2489V43.5661C146.576 43.5661 149.56 45.0039 150.326 49.3073C150.326 49.3073 155.478 46.4018 162.4 47.3902C164.787 49.5969 166.021 60.0808 158.044 58.0839C154.692 60.1307 144.149 60.1607 145.651 49.2075Z" fill="#3F2207"/>
<path d="M140.43 43.2765C140.43 43.2765 142.091 43.4463 142.847 44.3249M155.369 39.5522C155.369 39.5522 157.08 44.3449 157.288 44.964C157.497 45.583 156.831 46.0723 156.224 46.2919L155.369 39.5522ZM155.856 36.2972C155.856 36.2972 158.104 36.0875 159.467 37.3057L155.856 36.2972ZM148.058 37.9147C148.058 37.9147 148.834 36.3671 151.908 36.2972L148.058 37.9147ZM142.409 41.9386C142.409 41.9386 143.075 43.6959 142.827 46.2819L142.409 41.9386Z" stroke="#3F2207" stroke-miterlimit="12.5" stroke-linecap="round" stroke-linejoin="round"/>
<path fill-rule="evenodd" clip-rule="evenodd" d="M158.492 39.3226C158.084 39.2427 157.736 39.692 157.706 40.311C157.676 40.9301 157.985 41.4992 158.382 41.579C158.79 41.6589 159.138 41.2096 159.168 40.5906C159.208 39.9715 158.9 39.4024 158.492 39.3226ZM150.744 39.9915C150.336 39.9116 149.988 40.3609 149.958 40.98C149.928 41.599 150.237 42.1681 150.634 42.248C151.042 42.3279 151.39 41.8786 151.42 41.2595C151.46 40.6405 151.152 40.0714 150.744 39.9915Z" fill="#3F2207"/>
<path d="M154.146 50.1061C154.146 50.1061 154.931 52.5123 157.567 51.8633" stroke="#F99382" stroke-width="4.167" stroke-miterlimit="12.5" stroke-linecap="round" stroke-linejoin="round"/>
<path fill-rule="evenodd" clip-rule="evenodd" d="M142.876 92.7009C142.876 92.7009 143.692 91.5526 144.865 88.717C146.337 85.1624 148.535 85.3421 150.744 86.8898C150.744 86.8898 151.42 86.3306 152.216 85.9312C153.737 85.1724 155.736 86.73 155.359 88.717C156.811 88.707 158.313 90.3445 157.318 92.2815C157.318 92.2815 162.798 95.4966 148.804 103.275L142.876 92.7009ZM102.594 34.0607C102.594 34.0607 108.691 36.1175 106.254 50.6952C104.971 58.3435 100.704 59.6714 98.3969 59.5916V63.3658C98.3969 63.3658 103.31 65.4526 107.935 68.0586C107.935 68.0586 98.6754 83.9343 77.5498 64.6638C77.5498 64.6638 81.9858 63.2859 85.6062 62.3473L87.1976 50.5055C83.796 50.0961 81.6178 43.4862 84.5917 41.4993C86.5511 40.1913 88.7492 41.4893 89.2067 42.6276C89.2166 42.6276 97.4222 40.5707 102.594 34.0607Z" fill="#F99382"/>
<path fill-rule="evenodd" clip-rule="evenodd" d="M98.3969 59.5816C98.3969 59.5816 95.0351 59.5117 92.5088 57.2751C92.5088 57.2751 92.8967 62.3074 98.3969 63.1362C98.3969 63.1462 100.356 61.1093 98.3969 59.5816Z" fill="#3F2207"/>
<path d="M84.7109 44.325C84.7109 44.325 85.6956 45.7827 87.0085 46.0024M87.2074 42.9171C87.2074 42.9171 86.6007 45.3833 87.5058 48.0193L87.2074 42.9171ZM99.2721 42.2681C99.2721 42.2681 100.615 46.7512 100.824 47.4102C101.033 48.0592 99.8092 48.6184 99.8092 48.6184L99.2721 42.2681ZM100.625 38.2942C100.625 38.2942 103.37 37.0461 104.742 38.6337L100.625 38.2942ZM95.8904 37.9148C95.8904 37.9148 92.8867 37.8748 91.892 39.5523L95.8904 37.9148Z" stroke="#3F2207" stroke-miterlimit="12.5" stroke-linecap="round" stroke-linejoin="round"/>
<path fill-rule="evenodd" clip-rule="evenodd" d="M96.4972 50.1061C96.4972 50.1061 98.556 51.434 101.639 51.0347C101.639 51.0347 101.072 53.0516 99.7993 53.431C98.7152 53.7705 95.9303 53.1914 96.4972 50.1061Z" fill="white"/>
<path fill-rule="evenodd" clip-rule="evenodd" d="M102.734 41.6989C102.326 41.619 101.978 42.0683 101.948 42.6874C101.918 43.3064 102.227 43.8755 102.625 43.9554C103.032 44.0353 103.381 43.586 103.41 42.9669C103.45 42.3479 103.142 41.7788 102.734 41.6989ZM95.2047 41.5092C94.7969 41.4293 94.4488 41.8786 94.419 42.4976C94.3892 43.1167 94.6975 43.6858 95.0953 43.7657C95.5031 43.8456 95.8512 43.3962 95.8811 42.7772C95.9109 42.1482 95.6125 41.5791 95.2047 41.5092Z" fill="#3F2207"/>
<path fill-rule="evenodd" clip-rule="evenodd" d="M45.6423 104.333C45.3041 105.202 45.7119 106.18 46.5573 106.55C51.6498 108.776 68.1007 115.945 73.3523 118.232C73.7799 118.421 74.2574 118.421 74.695 118.242C75.1227 118.062 75.4708 117.723 75.6399 117.283C77.5495 112.481 83.0895 98.5818 84.9793 93.8391C85.1484 93.4097 85.1384 92.9404 84.9594 92.5111C84.7804 92.0917 84.4422 91.7523 84.0145 91.5825C78.753 89.4757 61.9937 82.756 56.7123 80.6392C56.2847 80.4695 55.8072 80.4795 55.3895 80.6592C54.9718 80.8389 54.6435 81.1884 54.4745 81.6178C52.6444 86.3006 47.4226 99.75 45.6423 104.333Z" fill="#CC855D"/>
<path fill-rule="evenodd" clip-rule="evenodd" d="M50.2773 105.641C50.2773 105.641 53.4701 113.669 55.7378 114.178C58.0055 114.687 61.3375 115.546 61.3375 115.546C61.3375 115.546 63.645 116.175 65.2364 114.617L61.059 112.8L61.7055 109.855C61.7055 109.855 65.6342 108.167 64.6197 106.24C63.9732 105.012 60.2931 106.52 59.8257 106.709C58.9604 107.059 58.5128 107.688 58.3437 108.227C59.7362 102.486 55.1609 100.878 54.8625 104.243C54.8128 104.822 54.7631 105.551 54.7034 106.709C53.0623 103.255 49.6308 104.053 50.2773 105.641Z" fill="#F99382"/>
<path d="M54.7038 106.709C54.7038 106.709 54.4452 109.955 54.7038 111.732M57.1605 111.562C57.1605 111.562 57.9264 109.286 58.3441 108.227L57.1605 111.562Z" stroke="#282845" stroke-miterlimit="12.5" stroke-linecap="round" stroke-linejoin="round"/>
<path fill-rule="evenodd" clip-rule="evenodd" d="M91.8919 139.938C90.7382 156.254 87.4162 187.286 80.9512 190.791L81.8165 175.704L91.8919 139.938ZM59.9648 168.595L61.4666 162.115L59.0099 160.837C58.6021 163.363 59.0497 165.959 59.9648 168.595Z" fill="#3F2207"/>
<path fill-rule="evenodd" clip-rule="evenodd" d="M130.265 63.6254C130.265 63.6254 131.747 60.5501 134.542 61.898C134.542 61.898 136.023 60.2106 138.102 61.5486C138.102 61.5486 139.704 59.941 141.643 62.8765C143.583 65.812 140.37 66.5609 139.704 66.1715C139.704 66.1715 138.968 67.4994 137.307 67.0401C137.307 67.0401 135.307 68.2383 132.503 65.2629C132.503 65.2629 129.36 66.5409 127.251 68.0586C127.251 68.0586 127.529 64.3143 127.669 63.6254C127.818 62.9364 129.071 62.5271 130.265 63.6254Z" fill="#F99382"/>
<path d="M138.102 61.5486C138.102 61.5486 141.056 63.9549 139.704 66.1715M130.265 63.6254C130.265 63.6254 131.021 64.5739 130.871 65.9818L130.265 63.6254ZM134.541 61.8881C134.541 61.8881 139.415 64.5939 137.307 67.0302L134.541 61.8881Z" stroke="#3F2207" stroke-miterlimit="12.5" stroke-linecap="round" stroke-linejoin="round"/>
<path fill-rule="evenodd" clip-rule="evenodd" d="M229.975 83.5848C229.975 83.5848 235.266 76.885 243.83 74.0194C243.83 74.0194 255.407 90.5641 259.256 98.0326C262.727 104.762 260.668 108.876 256.849 111.442C252.533 114.338 248.902 111.682 245.849 107.548C242.795 103.414 229.975 83.5848 229.975 83.5848Z" fill="#63A4DA"/>
<path d="M239.752 98.6217L229.786 83.6746C229.786 83.6746 230.582 82.5464 232.929 80.4496" stroke="#3F2207" stroke-miterlimit="12.5" stroke-linecap="round" stroke-linejoin="round"/>
<path fill-rule="evenodd" clip-rule="evenodd" d="M119.691 104.752L142.647 91.9021C142.647 91.9021 147.222 95.0772 149.977 103.275L131.716 116.265" fill="#CC855D"/>
<path d="M119.691 104.752L142.647 91.9021C142.647 91.9021 147.222 95.0772 149.977 103.275L131.716 116.265" stroke="#3F2207" stroke-miterlimit="12.5" stroke-linecap="round" stroke-linejoin="round"/>
<path d="M151.4 86.4004L148.287 88.7169" stroke="#3F2207" stroke-miterlimit="12.5" stroke-linecap="round" stroke-linejoin="round"/>
<path d="M217.124 45.7927C217.124 45.7927 218.059 44.7043 219.481 45.7927M214.279 41C216.109 41 217.392 43.1068 217.134 45.7128C216.885 48.3088 215.184 50.4256 213.364 50.4256C211.534 50.4256 210.251 48.3188 210.51 45.7128C210.758 43.1168 212.449 41 214.279 41ZM223.738 41C225.827 41 227.329 43.1068 227.07 45.7128C226.821 48.3088 224.912 50.4256 222.823 50.4256C220.734 50.4256 219.232 48.3188 219.491 45.7128C219.74 43.1168 221.649 41 223.738 41Z" stroke="#FFEBE2" stroke-miterlimit="12.5" stroke-linecap="round" stroke-linejoin="round"/>
<path fill-rule="evenodd" clip-rule="evenodd" d="M272.803 36.9662C271.599 32.1736 271.002 30.2964 273.966 29.3279C273.698 27.0714 273.937 24.6251 278.024 24.8348C277.905 23.5767 279.516 21.3002 283.604 23.2971C284.111 22.2288 288.279 21.41 289.303 24.8348C290.447 25.1843 294.485 26.4024 292.894 28.5291C294.286 29.0084 296.952 30.4961 295.719 32.8425C297.002 33.4316 298.354 34.4401 294.923 38.6237L288.349 43.5761L272.803 36.9662Z" fill="#3F2207"/>
<path fill-rule="evenodd" clip-rule="evenodd" d="M274.115 32.8425C274.115 32.8425 266.288 52.5723 277.656 56.3765L276.433 63.6154C276.433 63.6154 275.597 67.4795 277.656 71.5532C277.656 71.5532 285.285 64.7736 289.979 61.4287L290.825 47.9394C293.461 47.8295 297.429 42.2481 294.923 38.6236C292.486 35.109 288.388 38.384 288.279 40.2112C288.279 40.2112 288.129 35.2688 288.279 32.8425C288.279 32.8425 278.989 27.261 274.115 32.8425Z" fill="#F99382"/>
<path fill-rule="evenodd" clip-rule="evenodd" d="M284.908 55.348C284.908 55.348 281.556 57.4947 277.657 56.3764C277.657 56.3764 275.906 58.2236 277.02 60.1707C277.02 60.1707 283.674 60.4702 284.908 55.348Z" fill="#3F2207"/>
<path d="M293.998 41.619C293.998 41.619 292.227 41.609 290.954 42.927M279.944 37.9147C279.944 37.9147 278.303 42.8172 278.054 44.1152C277.925 44.7842 279.049 45.0438 279.536 45.0737L279.944 37.9147ZM283.604 45.6029C283.485 46.0722 282.848 49.1475 278.84 48.9678L283.604 45.6029ZM282.649 35.0191C282.649 35.0191 284.39 33.9408 286.13 35.4185L282.649 35.0191ZM274.314 35.4085C274.314 35.4085 275.329 33.8609 278.044 35.0191L274.314 35.4085ZM292.446 39.5522C292.446 39.5522 290.745 41.3794 290.646 45.5929L292.446 39.5522Z" stroke="#3F2207" stroke-miterlimit="12.5" stroke-linecap="round" stroke-linejoin="round"/>
<path fill-rule="evenodd" clip-rule="evenodd" d="M276.105 37.3057C276.513 37.2258 276.831 37.6752 276.791 38.2942C276.761 38.9133 276.403 39.4824 275.986 39.5623C275.578 39.6422 275.259 39.1928 275.299 38.5738C275.339 37.9547 275.697 37.3856 276.105 37.3057ZM283.843 37.3057C284.251 37.2258 284.569 37.6752 284.539 38.2942C284.509 38.9133 284.151 39.4824 283.733 39.5623C283.326 39.6422 283.007 39.1928 283.047 38.5738C283.067 37.9547 283.435 37.3856 283.843 37.3057Z" fill="#3F2207"/>
</svg>
