<svg width="301" height="266" viewBox="0 0 301 266" fill="none" xmlns="http://www.w3.org/2000/svg">
<path fill-rule="evenodd" clip-rule="evenodd" d="M215.768 195.705C217.416 199.09 221.406 200.618 224.89 199.2C233.837 195.551 250.247 188.858 259.006 185.286C262.359 183.923 264.15 180.274 263.194 176.779C255.632 149.202 224.659 36.3581 216.251 5.69329C215.713 3.7259 214.361 2.08825 212.536 1.18699C210.712 0.285728 208.591 0.197797 206.7 0.956173C191.511 7.05616 157.087 20.8938 142.172 26.8839C140.337 27.6203 138.886 29.0931 138.171 30.9395C137.457 32.786 137.545 34.8523 138.413 36.6329C152.009 64.6159 202.974 169.404 215.768 195.705Z" fill="#FFEBE2"/>
<path fill-rule="evenodd" clip-rule="evenodd" d="M161.867 247.275C164.219 250.21 168.451 250.825 171.539 248.66C181.453 241.736 202.215 227.227 211.909 220.446C214.877 218.38 215.822 214.412 214.118 211.225C198.423 181.835 125.542 45.3708 108.066 12.6396C107.11 10.8481 105.429 9.54017 103.45 9.06755C101.472 8.58395 99.3836 8.97962 97.702 10.1337C81.3474 21.4324 39.0871 50.6464 23.0513 61.7253C21.4246 62.8574 20.3255 64.605 20.0398 66.5723C19.754 68.5287 20.2926 70.5291 21.5346 72.0678C44.2199 100.392 140.567 220.677 161.867 247.275Z" fill="#63A4DA"/>
<path d="M93.9605 67.9814C80.7219 68.6376 88.4707 59.0326 65.4694 45.8398C64.8067 32.4711 73.1402 35.7695 87.4501 38.4419C100.778 35.8391 112.748 30.0947 113.41 43.4634C114.073 56.832 107.199 67.3252 93.9605 67.9814Z" fill="#EFC2E9"/>
<path d="M50.8492 85.2059C38.4682 81.8127 19.6281 78.6118 37.6682 63.6768C49.6631 57.7369 55.7885 51.4333 59.613 72.6696C65.7954 86.8835 77.9215 77.2471 69.9478 96.4303C57.9529 102.37 63.2301 88.5992 50.8492 85.2059Z" fill="#EFC2E9"/>
<path fill-rule="evenodd" clip-rule="evenodd" d="M0.729238 135.584C2.16905 133.991 11.94 137.321 20.7658 145.246C29.5915 153.181 34.1418 162.733 32.7019 164.326C31.2621 165.931 22.931 160.776 14.1052 152.851C5.29049 144.927 -0.699587 137.189 0.729238 135.584V135.584Z" fill="#C57DBA"/>
<path fill-rule="evenodd" clip-rule="evenodd" d="M204.92 227.271C204.92 227.271 212.174 232.316 215.251 235.702C219.428 240.307 214.944 264.751 210.13 265.125C205.316 265.498 184.466 265.125 184.466 265.125C184.466 265.125 183.905 254.441 196.743 253.441V239.186L204.92 227.271V227.271Z" fill="#EFC2E9"/>
<path fill-rule="evenodd" clip-rule="evenodd" d="M196.743 253.452C196.743 253.452 200.436 253.046 206.228 253.947C206.228 253.947 204.844 250.913 196.743 251.067C195.567 251.782 195.424 252.562 196.743 253.452ZM206.58 228.459C206.58 228.459 207.218 239.373 195.809 243.945L194.193 235.713L204.921 225.337L206.58 228.459Z" fill="#C57DBA"/>
<path d="M171.315 235.049C161.983 231.56 175.109 213.923 163.163 197.97C166.686 188.546 176.865 177.954 185.945 184.059C195.918 186.231 204.46 198.703 200.937 208.127C197.414 217.55 180.647 238.538 171.315 235.049Z" fill="#EFC2E9"/>
<path d="M154.749 131.601C155.8 148.545 137.273 146.492 120.742 176.159C103.632 177.22 79.4147 114.951 82.6099 96.5825C103.567 82.2298 109.123 120.158 126.233 119.097C143.344 118.037 153.698 114.657 154.749 131.601Z" fill="#EFC2E9"/>
<path fill-rule="evenodd" clip-rule="evenodd" d="M123.125 118.472C121.444 119.912 118.949 125.132 128.687 137.607L139.469 141.322L149.756 125.088L129.753 114.141C129.742 114.141 124.807 117.032 123.125 118.472V118.472Z" fill="#3F2207" stroke="#3F2207" stroke-width="4.1667" stroke-miterlimit="12.5" stroke-linecap="round" stroke-linejoin="round"/>
<path d="M206.034 131.348C196.702 127.859 205.872 120.885 208.034 101.505C211.557 92.0817 218.594 117.295 229.038 101.505C239.011 103.677 249.535 106.698 236.535 123.848C233.012 133.272 215.366 134.837 206.034 131.348Z" fill="#63A4DA"/>
<path fill-rule="evenodd" clip-rule="evenodd" d="M145.393 125.308C145.393 125.308 140.876 130.902 137.139 136.75C137.139 136.75 101.649 123.725 89.6796 125.088C77.6994 126.451 39.8574 137.739 39.8574 137.739L45.0452 158.864L89.6796 148.4C89.6796 148.4 136.501 167.349 141.788 170.327C147.063 173.306 151.163 172.009 151.163 172.009L166.067 136.739L145.393 125.308V125.308Z" fill="#FFEBE2"/>
<path fill-rule="evenodd" clip-rule="evenodd" d="M141.616 146C141.616 146 135.676 158.592 134.5 167L140.5 169.5L149.101 167.817L141.616 146Z" fill="#3F2207"/>
<path fill-rule="evenodd" clip-rule="evenodd" d="M141.777 141.322C141.777 141.322 138.656 192.958 141.777 201.761C144.898 210.565 193.017 241.868 193.017 241.868C193.017 241.868 205.788 239.296 206.228 226.161L167.957 191.1L179.795 141.916L146.756 129.825L141.777 141.322V141.322Z" fill="#FFEBE2"/>
<path fill-rule="evenodd" clip-rule="evenodd" d="M133.764 132.518C141.051 131.166 146.217 139.399 157.351 144.169C172.079 150.478 180.608 146.631 182.025 145.905L180.047 133.057L140.271 119.89C140.271 119.901 124.686 134.2 133.764 132.518V132.518ZM39.9011 137.728C41.242 137.398 43.4952 141.872 44.924 147.697C46.3528 153.533 46.4188 158.534 45.0669 158.864C43.726 159.193 41.4729 154.72 40.044 148.895C38.6152 143.07 38.5602 138.047 39.9011 137.728Z" fill="#3F2207"/>
<path fill-rule="evenodd" clip-rule="evenodd" d="M43.7255 158.006C38.4059 161.007 33.427 163.942 32.5807 164.447L32.7125 164.337C34.1524 162.744 28.1513 154.995 19.3255 147.059C10.5547 139.179 2.27848 134.046 0.761719 135.552C10.6756 122.846 31.4376 141.894 31.4376 141.894L42.0439 139.772C43.0661 141.575 44.1322 144.411 44.9345 147.686C45.8248 151.335 46.1875 154.665 46.0007 156.72L43.7255 158.006V158.006Z" fill="#EFC2E9"/>
<path fill-rule="evenodd" clip-rule="evenodd" d="M31.4375 141.905C31.4375 141.905 32.9433 143.289 34.526 145.246C34.526 145.246 34.471 142.894 32.3388 140.421L31.4375 141.905ZM40.9777 139.992C42.5824 139.937 44.7256 155.138 42.4944 158.699L45.462 160.754L49.6825 156.676L44.3189 137.596C44.3189 137.607 39.7797 140.036 40.9777 139.992V139.992Z" fill="#C57DBA"/>
<path fill-rule="evenodd" clip-rule="evenodd" d="M119.849 63.2861C119.849 63.2861 118.124 60.3625 116.014 59.1425C113.903 57.9225 112.222 55.5814 111.892 54.0866C111.562 52.6028 108.298 52.1302 108.254 55.7573C108.199 59.3953 109.485 59.714 109.485 59.714C109.485 59.714 106.363 59.8899 102.967 61.3737C102.967 61.3737 93.8117 61.3297 90.2177 63.2751C88.4481 64.2313 88.7229 65.5832 89.6791 66.0888C89.7341 66.1108 88.7998 67.7265 92.5807 68.0782C90.9651 69.7818 93.9876 70.5072 97.5487 68.353C97.5487 68.353 104.495 68.8586 111.167 71.3425L119.849 63.2861V63.2861Z" fill="#F99382"/>
<path d="M112.684 63.6927C112.684 63.6927 106.364 60.1976 103.012 64.1104C103.012 64.1104 90.1743 62.7805 89.6797 66.0888M105.628 61.3846H102.968H105.628ZM97.5382 68.3639C97.5382 68.3639 95.406 68.1001 92.5703 68.0891L97.5382 68.3639Z" stroke="#3F2207" stroke-miterlimit="12.5" stroke-linecap="round" stroke-linejoin="round"/>
<path fill-rule="evenodd" clip-rule="evenodd" d="M275.185 69.2871C276.647 69.6058 276.954 73.9033 275.866 78.8712C274.789 83.839 272.723 87.6199 271.261 87.3012C269.8 86.9824 269.492 82.685 270.58 77.7171C271.668 72.7492 273.723 68.9683 275.185 69.2871Z" fill="#3F2207" stroke="#3F2207" stroke-miterlimit="12.5" stroke-linecap="round" stroke-linejoin="round"/>
<path fill-rule="evenodd" clip-rule="evenodd" d="M270.48 70.8479C270.48 70.8479 274.393 69.5399 280.592 70.8479C280.592 70.8479 288.011 69.419 291.44 68.7706C292.287 68.7046 294.056 72.7932 288.187 74.1122C288.187 74.1122 290.583 75.1233 292.342 76.6511C292.342 76.6511 300.849 79.0691 300.508 81.9047C300.332 83.3665 298.815 82.9269 298.815 82.9269C298.881 84.2788 298.573 85.5757 296.144 85.191C293.715 84.8063 276.229 82.5312 260.522 85.8835L270.48 70.8479" fill="#F99382"/>
<path fill-rule="evenodd" clip-rule="evenodd" d="M271.272 87.3013H271.283C268.975 87.5101 245.487 89.8182 202.93 102.513C202.93 102.513 192.126 122.901 183.19 145.246C183.19 145.246 166.407 151.653 149.635 134.793C132.862 117.933 125.96 115.955 123.113 118.461C123.113 118.461 139.006 104.161 161.142 93.0276L112.188 73.1339C108.539 71.6941 115.079 60.5273 123.113 62.4946L184.872 78.5745L204.183 76.8928C204.183 76.8928 242.31 70.4631 274.877 69.2871C273.448 69.5069 271.59 73.1009 270.59 77.7281C269.502 82.6961 269.81 86.9825 271.272 87.3013V87.3013Z" fill="#CC855D"/>
<path fill-rule="evenodd" clip-rule="evenodd" d="M161 93C161 93 165.11 91.17 167.946 90.1479C167.946 90.1479 162.351 89.9171 157.351 91.4998C157.351 91.4888 158 92 161 93Z" fill="#3F2207"/>
<path d="M275.119 75.8048C275.119 75.8048 279.516 74.42 283.747 77.6623C283.747 77.6623 298.651 79.7946 298.794 82.916M292.331 76.6511C289.869 75.9257 287.44 75.3762 285.044 74.9695L292.331 76.6511ZM284.242 73.189C284.242 73.189 286.418 73.3538 288.187 74.1122L284.242 73.189Z" stroke="#3F2207" stroke-miterlimit="12.5" stroke-linecap="round" stroke-linejoin="round"/>
<path fill-rule="evenodd" clip-rule="evenodd" d="M207.557 44.7661C207.557 44.7661 200.325 44.4914 194.379 51.1299C194.379 51.1299 188.312 52.5807 189.312 54.8229C189.697 55.6912 190.609 56.3067 190.609 56.3067C188.664 59.2962 186.103 67.0998 192.95 69.276C192.95 69.276 189.279 74.3649 184.289 79.1789C178.706 84.5645 196.083 80.6627 204.205 76.9038C204.205 76.9038 207.041 71.0785 208.525 69.276L218.955 61.8681V52.3169L207.557 44.7661V44.7661Z" fill="#F99382"/>
<path fill-rule="evenodd" clip-rule="evenodd" d="M192.928 69.2652C192.928 69.2652 195.357 69.7818 198.017 69.1772C198.017 69.1772 195.907 71.5293 190.367 71.3535L192.928 69.2652V69.2652Z" fill="#3F2207"/>
<path fill-rule="evenodd" clip-rule="evenodd" d="M209.734 56.4056C209.734 56.4056 206.909 53.5919 209.371 49.0526C209.371 49.0526 207.756 45.5136 204.195 45.4037C203.711 45.3817 203.238 45.4476 202.788 45.5905C202.062 45.8213 200.513 46.3818 198.787 47.437C194.643 40.4138 198.974 36.49 201.952 37.677C203.953 38.4794 203.348 40.6116 204.975 42.4361C213.383 31.3133 223.143 33.2367 218.274 40.7215C216.329 43.711 226.583 39.1058 234.53 48.2613C238.651 52.9984 235.948 58.5268 230.309 59.6259C228.276 60.0216 224.968 59.2962 222.648 60.2854C225.121 60.8239 226.605 64.1872 223.616 65.9677C220.868 67.5944 214.086 66.4403 208.525 69.265C208.525 69.265 208.063 66.2315 208.899 64.6158C210.822 65.3852 216.516 63.3739 216.779 58.4609C216.955 55.0977 212.976 54.2733 209.734 56.4056Z" fill="#212121"/>
<path d="M211.119 59.824C211.119 59.824 212.57 59.3843 213.878 60.2856M213.218 57.8016C213.218 57.8016 211.229 58.7249 210.141 61.8573L213.218 57.8016Z" stroke="#3F2207" stroke-miterlimit="12.5" stroke-linecap="round" stroke-linejoin="round"/>
<path fill-rule="evenodd" clip-rule="evenodd" d="M191.368 59.6041C191.368 59.6041 194.72 59.8679 197.71 58.7358C197.71 58.7358 197.797 62.9454 193.962 62.8795C191.269 62.8465 191.247 60.5164 191.368 59.6041Z" fill="white"/>
<path d="M201.677 48.668C201.677 48.668 204.392 49.2505 204.282 52.3939" stroke="#3F2207" stroke-miterlimit="12.5" stroke-linecap="round" stroke-linejoin="round"/>
<path fill-rule="evenodd" clip-rule="evenodd" d="M200.006 50.7454C200.369 51.0751 200.259 51.7785 199.764 52.3061C199.27 52.8446 198.588 53.0095 198.226 52.6907C197.863 52.361 197.973 51.6576 198.468 51.1301C198.962 50.6025 199.654 50.4157 200.006 50.7454Z" fill="#3F2207"/>
<path d="M83.9853 83.861C85.5575 83.861 86.832 82.5866 86.832 81.0144C86.832 79.4422 85.5575 78.1677 83.9853 78.1677C82.4132 78.1677 81.1387 79.4422 81.1387 81.0144C81.1387 82.5866 82.4132 83.861 83.9853 83.861Z" fill="#EFC2E9"/>
<path d="M70.8467 114.693C72.4188 114.693 73.6933 113.419 73.6933 111.847C73.6933 110.274 72.4188 109 70.8467 109C69.2745 109 68 110.274 68 111.847C68 113.419 69.2745 114.693 70.8467 114.693Z" fill="#EFC2E9"/>
<path d="M129.847 194.693C131.419 194.693 132.693 193.419 132.693 191.847C132.693 190.274 131.419 189 129.847 189C128.274 189 127 190.274 127 191.847C127 193.419 128.274 194.693 129.847 194.693Z" fill="#EFC2E9"/>
<path d="M132.847 97.6933C134.419 97.6933 135.693 96.4188 135.693 94.8467C135.693 93.2745 134.419 92 132.847 92C131.274 92 130 93.2745 130 94.8467C130 96.4188 131.274 97.6933 132.847 97.6933Z" fill="#EFC2E9"/>
<path d="M182.847 175.693C184.419 175.693 185.693 174.419 185.693 172.847C185.693 171.274 184.419 170 182.847 170C181.274 170 180 171.274 180 172.847C180 174.419 181.274 175.693 182.847 175.693Z" fill="#EFC2E9"/>
<path d="M268.173 118.472C269.873 118.472 271.251 117.094 271.251 115.394C271.251 113.695 269.873 112.317 268.173 112.317C266.474 112.317 265.096 113.695 265.096 115.394C265.096 117.094 266.474 118.472 268.173 118.472Z" fill="#63A4DA"/>
<path d="M250.077 179.155C251.777 179.155 253.155 177.777 253.155 176.077C253.155 174.378 251.777 173 250.077 173C248.378 173 247 174.378 247 176.077C247 177.777 248.378 179.155 250.077 179.155Z" fill="#63A4DA"/>
<path d="M203.077 147.155C204.777 147.155 206.155 145.777 206.155 144.077C206.155 142.378 204.777 141 203.077 141C201.378 141 200 142.378 200 144.077C200 145.777 201.378 147.155 203.077 147.155Z" fill="#63A4DA"/>
<path d="M173.077 70.1549C174.777 70.1549 176.155 68.7771 176.155 67.0775C176.155 65.3778 174.777 64 173.077 64C171.378 64 170 65.3778 170 67.0775C170 68.7771 171.378 70.1549 173.077 70.1549Z" fill="#63A4DA"/>
<path d="M203.077 21.1549C204.777 21.1549 206.155 19.7771 206.155 18.0775C206.155 16.3778 204.777 15 203.077 15C201.378 15 200 16.3778 200 18.0775C200 19.7771 201.378 21.1549 203.077 21.1549Z" fill="#63A4DA"/>
<path d="M253.17 51.4817C254.627 51.4817 255.808 50.3007 255.808 48.8439C255.808 47.3871 254.627 46.2061 253.17 46.2061C251.713 46.2061 250.532 47.3871 250.532 48.8439C250.532 50.3007 251.713 51.4817 253.17 51.4817Z" fill="#EFC2E9"/>
<path d="M160.517 5.03386C161.907 5.03386 163.034 3.907 163.034 2.51694C163.034 1.12687 161.907 0 160.517 0C159.127 0 158 1.12687 158 2.51694C158 3.907 159.127 5.03386 160.517 5.03386Z" fill="#63A4DA"/>
<path d="M226.314 189.912C216.982 186.424 216 172.213 218.162 152.833C221.685 143.41 230.5 154.713 240.944 138.923C250.917 141.095 251 149.713 238 166.863C234.477 176.287 235.646 193.401 226.314 189.912Z" fill="#63A4DA"/>
<path d="M173.673 52.0061C163.414 54.256 147.985 57.0048 145.946 37.6117C147.369 27.6522 155.34 42.8432 162.159 25.1822C172.366 25.1673 189.209 15.4677 191 23.6355C189.578 33.595 183.932 49.7561 173.673 52.0061Z" fill="#63A4DA"/>
</svg>
