<svg width="308" height="252" viewBox="0 0 308 252" fill="none" xmlns="http://www.w3.org/2000/svg">
<path fill-rule="evenodd" clip-rule="evenodd" d="M176.106 34.7197C175.439 31.5857 172.671 29.3428 169.472 29.3428H6.78508C4.74458 29.3428 2.80662 30.2645 1.51464 31.852C0.222665 33.4395 -0.279772 35.5186 0.150887 37.5158C4.9394 60.1297 18.2693 123.096 22.258 141.9C22.9245 145.034 25.693 147.277 28.8922 147.277H191.579C193.619 147.277 195.557 146.356 196.849 144.768C198.141 143.181 198.644 141.102 198.213 139.104C193.414 116.49 180.084 53.5237 176.106 34.7197ZM204.345 168.089C203.678 164.955 200.91 162.712 197.71 162.712H35.024C32.9835 162.712 31.0455 163.634 29.7535 165.221C28.4616 166.809 27.9591 168.888 28.3898 170.885C33.0553 192.935 45.5649 252 45.5649 252H222.114C222.114 252.01 208.426 187.384 204.345 168.089Z" fill="#FFEBE2"/>
<path fill-rule="evenodd" clip-rule="evenodd" d="M158.049 44.767C157.772 43.4766 156.634 42.5446 155.311 42.5446H24.8629C24.0221 42.5446 23.2121 42.9235 22.6891 43.579C22.1559 44.2345 21.9508 45.0948 22.1252 45.9244C24.2477 55.9204 30.441 85.1915 32.2046 93.4976C32.4815 94.7881 33.6196 95.7201 34.9424 95.7201H165.391C166.232 95.7201 167.032 95.3411 167.565 94.6857C168.098 94.0302 168.303 93.1699 168.129 92.3403C166.006 82.3443 159.803 53.0731 158.049 44.767ZM186.237 177.9C185.96 176.61 184.822 175.678 183.499 175.678H53.0505C52.2097 175.678 51.4099 176.057 50.8767 176.712C50.3435 177.368 50.1385 178.228 50.3128 179.058C52.7942 190.764 60.8537 228.854 60.8537 228.854H197.034C197.024 228.854 188.37 187.968 186.237 177.9ZM51.7688 105.481C60.5461 105.481 69.1387 112.373 70.9434 120.874C72.7378 129.375 67.0777 136.267 58.2902 136.267C49.513 136.267 40.9203 129.364 39.1157 120.874C37.3213 112.373 42.9916 105.481 51.7688 105.481ZM83.9144 111.605C89.2361 111.605 94.4348 115.784 95.5217 120.925C96.6086 126.067 93.1736 130.245 87.8621 130.245C82.5507 130.245 77.3417 126.067 76.2548 120.925C75.1679 115.784 78.603 111.605 83.9144 111.605ZM110.861 111.605C116.183 111.605 121.382 115.784 122.469 120.925C123.556 126.067 120.131 130.245 114.809 130.245C109.487 130.245 104.289 126.067 103.202 120.925C102.115 115.784 105.55 111.605 110.861 111.605Z" fill="white"/>
<path fill-rule="evenodd" clip-rule="evenodd" d="M43.6578 113.469C43.5655 113.018 43.1656 112.701 42.7042 112.701H37.362C37.0646 112.701 36.7878 112.834 36.6032 113.059C36.512 113.171 36.4471 113.302 36.4133 113.442C36.3796 113.582 36.3779 113.728 36.4084 113.869C37.1569 117.392 39.3615 127.808 39.9767 130.727C40.069 131.177 40.4689 131.495 40.9303 131.495H46.2725C46.5699 131.495 46.8467 131.362 47.0313 131.136C47.2159 130.911 47.2877 130.614 47.2261 130.327C46.4776 126.804 44.273 116.388 43.6578 113.469ZM46.6417 112.701C47.7183 112.701 48.6001 111.861 48.6514 110.786C48.795 108.031 49.0411 102.992 49.1744 100.431C49.1949 100.011 49.3897 99.6631 49.7178 99.448C50.0459 99.233 50.4766 99.1818 50.9175 99.2944L51.2866 99.3866C54.332 100.185 56.7519 103.033 56.8647 105.972C56.9672 108.614 57.0903 111.472 57.121 112.394C57.1313 112.568 57.2748 112.701 57.4389 112.701H67.262C68.4207 112.701 69.6204 113.387 70.3176 114.463C73.1067 118.795 73.5168 125.391 72.03 129.764C71.6301 130.839 70.615 131.505 69.3538 131.505H50.4048C49.6665 131.505 48.9488 130.911 48.795 130.174C48.0669 126.722 46.1085 117.484 45.3805 114.022C45.2266 113.285 45.6983 112.691 46.4263 112.691C46.4366 112.701 46.5084 112.701 46.6417 112.701ZM87.8721 122.277H90.0254C90.1279 122.277 90.2202 122.339 90.2715 122.431C90.3125 122.523 90.3023 122.636 90.2407 122.717C89.5332 123.609 87.9541 125.616 87.3492 126.374C87.2876 126.456 87.1954 126.507 87.0928 126.517C86.9903 126.527 86.898 126.497 86.816 126.435C85.9649 125.739 83.4937 123.701 82.3556 122.758C82.2633 122.687 82.2325 122.564 82.2735 122.451C82.3146 122.339 82.4171 122.267 82.5299 122.267H84.4884C84.4884 122.267 83.4835 117.535 83.1861 116.122C83.1656 116.019 83.1861 115.927 83.2477 115.845C83.3092 115.763 83.4015 115.722 83.504 115.722H86.211C86.3648 115.722 86.4981 115.835 86.5289 115.978C86.7955 117.207 87.8721 122.277 87.8721 122.277ZM107.99 119.42C108.821 119.42 109.641 120.096 109.815 120.925C109.99 121.755 109.456 122.431 108.626 122.431C107.795 122.431 106.975 121.755 106.801 120.925C106.616 120.096 107.149 119.42 107.99 119.42ZM117.054 119.42C117.885 119.42 118.705 120.096 118.88 120.925C119.054 121.755 118.521 122.431 117.69 122.431C116.86 122.431 116.039 121.755 115.865 120.925C115.68 120.096 116.214 119.42 117.054 119.42ZM112.522 119.42C113.353 119.42 114.173 120.096 114.347 120.925C114.522 121.755 113.988 122.431 113.158 122.431C112.327 122.431 111.507 121.755 111.333 120.925C111.148 120.096 111.681 119.42 112.522 119.42Z" fill="#CC855D"/>
<path fill-rule="evenodd" clip-rule="evenodd" d="M79.5867 91.2445C81.0325 92.5964 79.515 96.5292 76.1825 100.022C72.85 103.514 68.9638 105.245 67.518 103.893C66.062 102.541 67.6001 98.6083 70.9223 95.1159C74.2548 91.6234 78.1409 89.8925 79.5867 91.2445ZM85.4621 147.892C84.6829 148.947 80.9402 147.359 77.1156 144.338C73.2807 141.327 70.7992 138.019 71.5785 136.964C72.3578 135.909 76.1004 137.497 79.9354 140.518C83.7498 143.529 86.2312 146.837 85.4621 147.892ZM41.6785 99.1102C40.766 99.4584 38.6537 97.3383 36.9618 94.3682C35.2699 91.3981 34.6445 88.7045 35.557 88.346C36.4696 87.9978 38.5819 90.1179 40.2738 93.088C41.9656 96.0581 42.5911 98.762 41.6785 99.1102ZM59.9918 99.0282C59.315 98.762 59.0997 97.0413 59.4996 95.1978C59.8995 93.344 60.7813 92.0536 61.4478 92.3199C62.1246 92.5861 62.3399 94.3068 61.94 96.1503C61.5401 98.0041 60.6583 99.2843 59.9918 99.0282Z" fill="#FF7EAD"/>
<path fill-rule="evenodd" clip-rule="evenodd" d="M268.769 57.7024L270.85 64.1957C270.85 64.1957 270.542 66.326 273.793 70.9245C276.449 74.6935 275.751 78.0221 272.726 79.5584C270.378 80.7567 266 79.1385 265.549 75.0008C265.087 70.8529 264.298 59.2796 264.298 59.2796L268.769 57.7024Z" fill="#CC855D"/>
<path fill-rule="evenodd" clip-rule="evenodd" d="M272.726 48.3721L270.85 56.883C270.85 56.883 270.542 59.0133 273.793 63.6221C276.449 67.3911 275.751 70.7197 272.726 72.2559C270.378 73.4542 266 71.836 265.549 67.6983C265.087 63.5504 264.298 51.9772 264.298 51.9772L272.726 48.3721Z" fill="#CC855D"/>
<path fill-rule="evenodd" clip-rule="evenodd" d="M265.887 61.6763L267.025 68.272C267.025 68.272 266.718 70.4023 269.968 75.0009C272.624 78.7699 271.927 82.0985 268.902 83.6348C266.554 84.8331 262.175 83.2149 261.724 79.0772C261.263 74.9292 260.473 63.3559 260.473 63.3559L265.887 61.6763ZM233.865 64.2265L230.84 70.0951C230.84 70.0951 230.491 72.1947 226.072 75.5745C222.442 78.3398 222.124 81.6786 224.513 84.024C226.369 85.847 230.973 85.6217 232.634 81.8527C234.295 78.0837 238.479 67.4117 238.479 67.4117L233.865 64.2265Z" fill="#CC855D"/>
<path fill-rule="evenodd" clip-rule="evenodd" d="M230.625 53.8105L228 59.7508C228 59.7508 227.785 61.8299 223.652 65.4043C220.268 68.3334 220.145 71.6211 222.627 73.7821C224.555 75.4618 229.046 74.9599 230.451 71.1704C231.855 67.381 235.321 56.668 235.321 56.668L230.625 53.8105Z" fill="#CC855D"/>
<path fill-rule="evenodd" clip-rule="evenodd" d="M232.839 59.4434L230.491 65.2403C230.491 65.2403 230.348 67.2477 226.472 70.8119C223.293 73.741 223.283 76.9057 225.734 78.9131C227.641 80.4699 231.958 79.8554 233.198 76.1581C234.439 72.4608 237.454 62.0346 237.454 62.0346L232.839 59.4434ZM230.409 13.4065C237.689 11.8088 233.475 23.761 230.153 29.0457C226.841 34.3407 222.524 37.6181 220.535 36.3686C218.536 35.1191 219.612 29.8139 222.924 24.5189C223.17 24.1297 223.427 23.7405 223.673 23.3718C223.58 18.9063 225.375 16.776 225.375 16.776C225.375 16.776 226.841 14.3487 230.409 13.4065Z" fill="#CC855D"/>
<path d="M294.691 20.2891C291.963 20.2891 289.42 22.5013 289.02 25.2256C288.282 30.1622 293.46 34.6481 296.444 35.6928C299.746 34.6481 306.247 30.1622 306.985 25.2256C307.395 22.5013 305.509 20.2891 302.781 20.2891C301.11 20.2891 299.51 21.1187 298.423 22.3886C297.716 21.1187 296.362 20.2891 294.691 20.2891Z" fill="#FF7EAD"/>
<path fill-rule="evenodd" clip-rule="evenodd" d="M151.783 107.447C151.783 107.447 151.845 63.5607 162.181 63.5607C162.181 63.5607 164.641 63.3559 165.616 65.4043C165.616 65.4043 166.979 62.1064 170.609 62.1064C174.239 62.1064 175.111 64.7795 175.111 64.7795C175.111 64.7795 177.233 49.7548 177.879 45.2177C177.992 44.3983 178.72 43.8043 179.54 43.8453C182.729 43.9989 189.343 46.5286 181.745 66.664C181.745 66.664 184.513 65.7115 185.836 67.3092C186.041 67.5448 186.133 67.8623 186.113 68.1696C185.928 70.1565 185.046 79.4765 183.98 85.1403C182.791 91.5107 179.294 97.4099 176.884 103.033L151.783 107.447Z" fill="#F99382"/>
<path fill-rule="evenodd" clip-rule="evenodd" d="M167.585 90.0154C167.585 90.0154 167.564 81.6273 177.706 80.9821L167.585 90.0154ZM175.111 64.7795C176.547 67.8521 177.039 83.051 171.317 83.051C167.277 83.0612 166.99 80.0194 166.99 80.0194" fill="#F99382"/>
<path d="M175.111 64.7795C176.547 67.8521 177.039 83.051 171.317 83.051C167.277 83.0612 166.99 80.0194 166.99 80.0194M167.585 90.0154C167.585 90.0154 167.564 81.6273 177.706 80.9821L167.585 90.0154Z" stroke="#24245B" stroke-miterlimit="12.5" stroke-linecap="round" stroke-linejoin="round"/>
<path fill-rule="evenodd" clip-rule="evenodd" d="M165.606 65.394C167.236 68.3334 169.81 82.2316 163.832 82.3442C158.141 82.4569 159.044 73.2188 159.044 73.2188L165.606 65.394ZM181.745 66.6538C181.745 66.6538 175.573 67.6575 177.705 80.9821L181.745 66.6538Z" fill="#F99382"/>
<path d="M181.745 66.6538C181.745 66.6538 175.573 67.6575 177.705 80.9821M165.606 65.394C167.236 68.3334 169.81 82.2316 163.832 82.3442C158.141 82.4569 159.044 73.2188 159.044 73.2188L165.606 65.394Z" stroke="#24245B" stroke-miterlimit="12.5" stroke-linecap="round" stroke-linejoin="round"/>
<path d="M151.354 105.874C151.658 105.704 152.016 105.514 152.423 105.312C154.004 104.528 156.313 103.578 159.176 102.944C164.64 101.736 172.184 101.659 180.71 106.227L185.946 123.232L193.346 154.224L191.432 170.335C191.423 170.379 191.412 170.44 191.396 170.516C191.359 170.704 191.301 170.985 191.222 171.347C191.064 172.071 190.822 173.114 190.491 174.369C189.826 176.889 188.813 180.217 187.417 183.516C186.007 186.846 184.277 189.976 182.247 192.228C180.229 194.467 178.165 195.579 175.993 195.579C173.041 195.579 170.249 195.063 167.623 193.298C164.974 191.517 162.168 188.244 159.64 182.124C154.597 169.917 151.018 147.286 151.354 105.874Z" fill="#63A4DA" stroke="#3F2207" stroke-width="6"/>
<path d="M190.181 156.352L190.153 156.623L182.51 229.655L287.117 230.373L304.449 123.67C306.302 110.544 303.025 103.9 300.82 100.557L300.82 100.557C298.183 96.5593 284.206 84.7911 249.861 84.7911C224.015 84.7911 205.666 92.1329 196.897 96.5912L190.181 156.352ZM190.181 156.352L190.16 156.081M190.181 156.352L190.16 156.081M190.16 156.081L186.601 109.749M190.16 156.081L186.601 109.749M186.601 109.749C186.684 109.526 186.791 109.245 186.921 108.914C187.272 108.018 187.785 106.77 188.427 105.376C190.184 101.584 193.169 98.4883 196.896 96.5917L186.601 109.749Z" fill="#63A4DA" stroke="#3F2207" stroke-width="6"/>
<path fill-rule="evenodd" clip-rule="evenodd" d="M182.288 94.9621C182.155 94.3168 181.591 93.8457 180.925 93.8457H177.562L184.042 126.476H188.543C188.553 126.466 183.427 100.687 182.288 94.9621Z" fill="#24245B"/>
<path fill-rule="evenodd" clip-rule="evenodd" d="M179.397 94.9621C179.264 94.3168 178.7 93.8457 178.034 93.8457H170.63C170.343 93.8457 170.077 93.9686 169.892 94.1939C169.708 94.4192 169.636 94.706 169.697 94.9825C170.846 100.759 175.952 126.466 175.952 126.466H185.662C185.662 126.466 180.536 100.687 179.397 94.9621Z" fill="#24245B"/>
<path fill-rule="evenodd" clip-rule="evenodd" d="M230.687 14.0927C230.687 14.0927 215.737 49.0992 222.842 62.9154C226.729 70.4637 233.681 72.215 233.681 72.215L230.266 84.3106C226.031 96.7544 249.964 102.039 261.181 87.4446C262.463 85.7752 263.294 83.8088 263.581 81.7297C265.303 69.3883 272.717 16.2639 272.717 16.2639C272.717 16.2639 249.266 -1.44418 230.687 14.0927Z" fill="#F99382"/>
<path fill-rule="evenodd" clip-rule="evenodd" d="M229.579 12.1365C229.579 12.1365 236.654 -0.635024 252.507 0.266256C271.415 1.34165 277.146 13.1197 279.628 20.2378C281.812 26.516 282.56 40.9365 277.136 47.522L274.132 51.291L264.124 18.0973L239.648 9.05375L229.579 12.1365Z" fill="#24245B"/>
<path fill-rule="evenodd" clip-rule="evenodd" d="M249.933 24.2321C249.933 24.2321 256.095 23.5254 258.208 28.8717C258.331 29.1687 258.669 29.312 258.967 29.1994C259.264 29.0867 259.418 28.7385 259.295 28.4415C256.865 22.2964 249.8 23.0645 249.8 23.0645C249.482 23.0953 249.246 23.3923 249.287 23.7098C249.318 24.0375 249.615 24.2731 249.933 24.2321Z" fill="#24245B"/>
<path fill-rule="evenodd" clip-rule="evenodd" d="M264.165 16.981C266.595 17.493 267.467 23.1465 266.093 29.5989C264.719 36.0512 261.633 40.8649 259.202 40.3528C256.772 39.8407 255.901 34.1872 257.275 27.7349C258.649 21.2825 261.735 16.4689 264.165 16.981Z" fill="#CC855D"/>
<path fill-rule="evenodd" clip-rule="evenodd" d="M223.673 23.3923C223.673 23.3923 226.821 13.6216 241.402 13.6216C255.983 13.6216 264.75 25.8913 265.888 30.5001C267.026 35.1089 269.21 38.8984 270.851 56.9035C270.851 56.9035 274.491 53.9641 276.388 50.8404C278.285 47.7166 277.618 27.2022 266.995 15.4446C256.844 4.20936 243.002 2.62187 232.42 7.17948C230.072 8.19342 228.052 9.86284 226.637 11.9931C225.057 14.3488 223.766 16.6941 222.894 19.0395C222.863 19.1419 222.832 19.2443 222.812 19.3468C222.699 19.9203 222.453 21.8867 223.673 23.3923Z" fill="#24245B"/>
<path fill-rule="evenodd" clip-rule="evenodd" d="M265.888 30.4899C265.888 30.4899 272.306 27.2433 276.439 31.5448C277.003 32.1388 277.536 32.866 277.997 33.7775C282.232 42.0836 272.511 53.8105 261.684 53.8105" fill="#F99382"/>
<path fill-rule="evenodd" clip-rule="evenodd" d="M241.155 31.5038C241.155 31.5038 238.807 38.5912 237.823 41.5408C237.659 42.0222 237.71 42.5446 237.946 42.9952C238.182 43.4458 238.592 43.7736 239.074 43.917C239.597 44.0706 240.079 44.2037 240.079 44.2037C240.386 44.2959 240.715 44.1115 240.807 43.8043C240.899 43.497 240.715 43.1693 240.407 43.0874L239.402 42.8006C239.218 42.7494 239.064 42.6265 238.982 42.4524C238.889 42.2783 238.879 42.0837 238.941 41.9096L242.263 31.8726C242.365 31.5653 242.201 31.2376 241.894 31.1351C241.586 31.0327 241.258 31.1966 241.155 31.5038ZM235.096 55.9818C235.096 55.9818 237.536 57.7742 241.043 57.3133C243.319 57.0163 246.077 55.7565 248.877 52.3562C249.082 52.1104 249.041 51.7417 248.795 51.5369C248.548 51.332 248.179 51.373 247.974 51.6188C245.421 54.7119 242.95 55.8897 240.879 56.1662C237.864 56.5656 235.772 55.0498 235.772 55.0498C235.516 54.8552 235.147 54.9167 234.952 55.1727C234.778 55.4185 234.839 55.7872 235.096 55.9818ZM229.589 25.3485C229.589 25.3485 232.768 22.0199 237.833 23.1772C238.151 23.2489 238.459 23.0543 238.531 22.7368C238.602 22.4193 238.407 22.1121 238.09 22.0404C232.337 20.7192 228.738 24.5394 228.738 24.5394C228.513 24.775 228.523 25.1437 228.759 25.3587C228.995 25.5943 229.364 25.5841 229.589 25.3485ZM233.855 29.5989C234.634 29.5989 235.126 30.5309 234.972 31.6882C234.808 32.8455 234.05 33.7775 233.27 33.7775C232.491 33.7775 231.999 32.8455 232.153 31.6882C232.317 30.5309 233.076 29.5989 233.855 29.5989ZM251.594 30.4899C252.373 30.4899 252.865 31.4219 252.712 32.5792C252.547 33.7366 251.789 34.6686 251.009 34.6686C250.23 34.6686 249.738 33.7263 249.892 32.5792C250.056 31.4219 250.815 30.4899 251.594 30.4899ZM270.451 41.4794C273.557 39.7178 274.573 37.2598 274.573 37.2598C274.696 36.9628 274.552 36.6248 274.265 36.5019C273.968 36.379 273.629 36.5224 273.506 36.8091C273.506 36.8091 272.737 38.6117 270.502 40.0865C270.43 37.1573 269.446 35.406 269.446 35.406C269.292 35.1192 268.933 35.0168 268.656 35.1704C268.369 35.3241 268.267 35.6825 268.42 35.959C268.42 35.959 270.245 39.3184 268.738 44.4495C268.646 44.7568 268.82 45.0845 269.138 45.1767C269.446 45.2689 269.774 45.0948 269.866 44.7773C270.194 43.5892 270.379 42.4831 270.451 41.4794Z" fill="#24245B"/>
<path fill-rule="evenodd" clip-rule="evenodd" d="M299.879 135.95C288.508 169.062 270 189.535 257.911 200.136C251.564 205.676 242.089 205.666 235.752 200.115C217.121 183.79 179.685 151.016 179.685 151.016L200.213 127.142L243.586 162.876L266.831 113.182" fill="#63A4DA"/>
<path d="M299.879 135.95C288.508 169.062 270 189.535 257.911 200.136C251.564 205.676 242.089 205.666 235.752 200.115C217.121 183.79 179.685 151.016 179.685 151.016L200.213 127.142L243.586 162.876L266.831 113.182" stroke="#3F2207" stroke-width="6" stroke-miterlimit="12.5" stroke-linecap="round" stroke-linejoin="round"/>
<path d="M243.586 162.876L248.846 167.065" stroke="#3F2207" stroke-width="6" stroke-miterlimit="12.5" stroke-linecap="round" stroke-linejoin="round"/>
<path fill-rule="evenodd" clip-rule="evenodd" d="M186.749 136.247C192.716 129.497 198.961 125.257 200.694 126.783C202.427 128.309 198.992 135.028 193.024 141.777C187.056 148.527 180.812 152.777 179.079 151.241C177.346 149.725 180.781 142.996 186.749 136.247Z" fill="#24245B"/>
<path fill-rule="evenodd" clip-rule="evenodd" d="M179.582 146.632C176.332 143.283 174.117 141.102 171.769 137.445C167.062 130.122 168.723 124.336 168.723 124.336C165.391 119.747 169.472 115.896 169.472 115.896C167.667 111.001 172.404 108.594 172.404 108.594L172.712 110.151C172.712 110.151 181.151 119.266 184.606 121.13C186.985 120.731 187.293 120.106 187.293 120.106L185.058 108.881C185.796 109.741 186.011 109.915 188.144 112.599C190.39 115.415 201.043 128.934 201.043 128.934C200.469 131.802 197.444 136.779 193.025 141.778C189.631 145.618 186.134 148.65 183.448 150.268L183.027 149.879C182.392 149.285 181.756 148.691 181.11 148.097L179.582 146.632Z" fill="#F99382"/>
<path d="M169.472 115.661C169.472 115.661 169.923 118.098 177.572 126.466M168.405 123.629C168.405 123.629 170.518 128.432 173.522 131.915L168.405 123.629Z" stroke="#24245B" stroke-miterlimit="12.5" stroke-linecap="round" stroke-linejoin="round"/>
<path d="M224.012 87.0349C224.012 87.0349 221.91 101.476 239.526 102.49C263.14 103.842 268.687 87.0144 268.687 87.0144" stroke="#3F2207" stroke-width="6" stroke-miterlimit="12.5" stroke-linecap="round" stroke-linejoin="round"/>
</svg>
