<svg width="300" height="257" viewBox="0 0 300 257" fill="none" xmlns="http://www.w3.org/2000/svg">
<path fill-rule="evenodd" clip-rule="evenodd" d="M277.778 96.4512C287.975 95.5396 296.483 97.4192 296.765 100.649C297.057 103.88 289.01 107.234 278.824 108.145C268.627 109.057 260.118 107.177 259.837 103.947C259.544 100.717 267.58 97.3629 277.778 96.4512Z" fill="#3F2207"/>
<path fill-rule="evenodd" clip-rule="evenodd" d="M1.38533 212.154C12.0439 258.322 232.903 248.451 261.536 229.104C278.542 217.612 270.675 202.778 254.389 201.889C238.756 201.034 220.016 200.246 214.793 186.514C200.668 149.35 163.38 127.166 152.102 96.71C108.41 -21.2773 -14.3606 143.903 1.38533 212.154V212.154Z" fill="#FFEBE2"/>
<path fill-rule="evenodd" clip-rule="evenodd" d="M264.946 111.139C264.946 111.139 264.98 96.1472 255.199 76.7996C255.199 76.7996 251.136 71.1046 258.092 71.6223C264.755 72.1063 268.12 85.376 268.199 84.5206C268.278 83.6652 267.917 46.7485 277.439 53.8617C279.589 55.4599 276.246 62.9333 276.966 74.301C276.966 74.301 281.333 70.8119 283.742 75.494C283.742 75.494 293.095 70.3955 292.161 105.917C292.161 105.905 283.146 115.011 264.946 111.139V111.139Z" fill="#F99382"/>
<path fill-rule="evenodd" clip-rule="evenodd" d="M250.494 55.0436C249.133 53.3891 248.131 51.4082 247.613 49.1797C245.835 41.4924 250.641 33.8165 258.317 32.0381C266.004 30.2598 273.68 35.0658 275.458 42.7418C275.976 44.9703 275.931 47.1875 275.436 49.2697C274.569 53.9406 270.697 56.4505 272.464 64.0814L273.736 69.6077C274.547 73.1418 272.341 76.6759 268.806 77.4863C265.272 78.3079 261.738 76.1019 260.928 72.5678L259.656 67.0415C257.99 59.9958 254.996 60.9525 250.494 55.0436Z" fill="#FFEBE2"/>
<path d="M264.17 47.5591L268.019 64.2279M259.859 48.5608L263.709 65.2296L259.859 48.5608Z" stroke="#AEC6F8" stroke-width="2" stroke-miterlimit="12.5" stroke-linecap="round" stroke-linejoin="round"/>
<path d="M265.239 44.0586C266.342 43.7998 267.434 44.4301 267.67 45.4543C267.906 46.4785 267.209 47.514 266.094 47.7728C264.991 48.0317 261.727 46.8274 261.727 46.8274C261.727 46.8274 264.147 44.3175 265.239 44.0586V44.0586ZM257.36 45.882C256.257 46.1408 255.56 47.1763 255.796 48.2005C256.032 49.2247 257.124 49.8438 258.216 49.5961C259.319 49.3373 261.727 46.8274 261.727 46.8274C261.727 46.8274 258.463 45.6231 257.36 45.882V45.882Z" stroke="#AEC6F8" stroke-width="2" stroke-miterlimit="12.5" stroke-linecap="round" stroke-linejoin="round"/>
<path fill-rule="evenodd" clip-rule="evenodd" d="M275.862 67.5466C275.241 64.8559 272.557 63.1777 269.866 63.7984L261.85 65.6476C259.159 66.2683 257.481 68.9527 258.101 71.6435L259.951 79.6599C260.571 82.3507 263.256 84.0288 265.946 83.4081L273.963 81.559C276.654 80.9383 278.332 78.2538 277.711 75.5631L275.862 67.5466Z" fill="#AEC6F8"/>
<path fill-rule="evenodd" clip-rule="evenodd" d="M272.69 0.039886C274.322 0.557621 273.928 6.20768 271.812 12.6343C269.696 19.061 266.646 23.8669 265.003 23.338C263.371 22.8202 263.765 17.1702 265.881 10.7435C267.997 4.30557 271.047 -0.489104 272.69 0.039886V0.039886ZM289.809 23.8219C290.552 24.6886 288.931 27.1534 286.196 29.3369C283.461 31.5092 280.647 32.5784 279.905 31.723C279.162 30.8564 280.783 28.3915 283.517 26.2193C286.252 24.0358 289.078 22.9665 289.809 23.8219ZM249.899 24.9587C248.908 25.3301 246.646 23.0228 244.845 19.8039C243.044 16.5849 242.38 13.6698 243.371 13.2984C244.361 12.927 246.623 15.2343 248.424 18.4532C250.236 21.6609 250.889 24.576 249.899 24.9587ZM234.299 36.6415C234.704 35.7861 236.955 35.651 239.319 36.3264C241.694 37.0017 243.292 38.2397 242.898 39.0951C242.493 39.9505 240.253 40.0856 237.878 39.4102C235.503 38.7349 233.905 37.4856 234.299 36.6415Z" fill="#EFC2E9"/>
<path d="M276.967 74.2786C276.967 74.2786 271.71 78.8144 271.643 82.8662C271.564 87.6046 275.222 93.5023 279.353 89.8894" stroke="#3F2207" stroke-width="2" stroke-miterlimit="12.5" stroke-linecap="round" stroke-linejoin="round"/>
<path d="M283.742 75.4717C283.742 75.4717 277.867 78.2742 277.282 82.5174C276.955 84.9372 279.566 91.1838 282.853 90.6211C286.151 90.0583 284.372 84.5095 284.372 84.5095" stroke="#3F2207" stroke-width="2" stroke-miterlimit="12.5" stroke-linecap="round" stroke-linejoin="round"/>
<path fill-rule="evenodd" clip-rule="evenodd" d="M297.496 107.054C311.678 238.975 260.996 198.265 260.996 198.265C246.927 186.627 235.492 175.451 225.205 163.959L204.878 238.378C189.774 254.462 111.168 251.614 99.0914 238.378L100.656 232.728C96.1763 232.807 81.9949 232.402 78.3707 215.17C73.8799 193.83 100.532 141.562 114.443 121.021C128.355 100.481 165.181 99.2312 165.181 99.2312L199.453 101.156C209.92 103.092 230.258 110.441 240.185 119.625C250.112 128.81 261.536 143.475 261.536 143.475C262.516 126.705 259.758 104.015 259.758 104.015L259.848 104.003C260.242 107.189 268.706 109.034 278.824 108.134C289.021 107.222 297.057 103.868 296.765 100.638L297.496 107.054V107.054Z" fill="#63A4DA"/>
<path fill-rule="evenodd" clip-rule="evenodd" d="M225.204 163.959L228.232 150.509C228.232 150.509 232.902 169.531 243.133 182.451C243.133 182.463 226.577 175.766 225.204 163.959ZM170.121 149.013C170.977 154.719 171.934 169.486 130.132 227C130.132 227 133.5 252.5 173 248.5L205 238.637C172.935 265.5 125 258.5 98.584 238.637L100.644 232.751L130.132 160.707C130.132 160.695 169.266 143.306 170.121 149.013Z" fill="#3F2207"/>
<path fill-rule="evenodd" clip-rule="evenodd" d="M178.631 43.9911C178.631 43.9911 181.298 16.5849 207.489 20.648C238.272 25.4202 229.56 71.6111 218.778 87.1206C210.01 99.7376 200.668 97.6667 200.668 97.6667C200.668 97.6667 197.911 113.863 197.258 114.741C188.288 126.817 162.041 112.805 165.474 99.8839C169.222 85.7475 174.95 66.7489 174.95 66.7489L178.631 43.9911V43.9911Z" fill="#F99382"/>
<path fill-rule="evenodd" clip-rule="evenodd" d="M185.654 48.3019C185.654 48.3019 195.052 43.0795 195.885 31.498C195.885 31.498 210.494 40.3333 227.32 39.2303L233.285 10.6648L171.585 22.5952L177.967 46.9062L185.654 48.3019ZM200.668 97.6668C200.668 97.6668 189.661 95.9673 186.52 89.9008C186.52 89.9008 185.553 102.158 199.25 105.658C199.25 105.647 199.5 104 200.668 97.6668Z" fill="#3F2207"/>
<path d="M197.686 44.2612C197.686 44.2612 203.414 40.0968 207.399 45.2854" stroke="#3F2207" stroke-width="2" stroke-miterlimit="12.5" stroke-linecap="round" stroke-linejoin="round"/>
<path fill-rule="evenodd" clip-rule="evenodd" d="M185.913 48.7182C185.147 42.9781 177.303 36.5852 170.122 43.6647C162.907 50.7666 167.747 65.9385 176.875 66.7151" fill="#F99382"/>
<path d="M173.948 49.4609C173.948 49.4609 175.231 52.8487 178.709 54.6158" stroke="#3F2207" stroke-width="2" stroke-miterlimit="12.5" stroke-linecap="round" stroke-linejoin="round"/>
<path fill-rule="evenodd" clip-rule="evenodd" d="M199.374 70.5193C199.374 70.5193 206.014 75.888 215.66 75.4603C215.66 75.4603 213.972 85.2185 205.575 83.2826C197.157 81.3129 197.731 73.1192 199.374 70.5193Z" fill="white"/>
<path fill-rule="evenodd" clip-rule="evenodd" d="M140.094 148.371C140.094 148.371 143.527 135.416 146.453 131.68C149.379 127.932 152.654 129.001 154.196 131.68C154.196 131.68 158.012 127.425 160.668 126.513C165.08 124.994 169.796 128.641 168.175 131.68C168.175 131.68 174.129 132.501 171.597 140.965C171.597 140.965 178.766 147.628 160.015 167.538L140.094 148.371V148.371Z" fill="#F99382"/>
<path d="M152.789 130.16C152.789 130.16 155.884 132.693 155.434 135.709L160.668 129.327" stroke="#3F2207" stroke-width="2" stroke-miterlimit="12.5" stroke-linecap="round" stroke-linejoin="round"/>
<path fill-rule="evenodd" clip-rule="evenodd" d="M100.655 184.624L137.628 145.411C137.628 145.411 153.048 147.381 163.616 168.799C163.616 168.799 117.065 232.728 100.667 232.728" fill="#63A4DA"/>
<path d="M100.655 184.624L137.628 145.411C137.628 145.411 139.103 145.602 140.701 146.221" stroke="#3F2207" stroke-width="2" stroke-miterlimit="12.5" stroke-linecap="round" stroke-linejoin="round"/>
<path fill-rule="evenodd" clip-rule="evenodd" d="M221.501 55.3926C220.488 55.2013 219.599 56.1917 219.498 57.6099C219.408 59.028 220.151 60.3336 221.164 60.525C222.176 60.7163 223.066 59.7258 223.167 58.3077C223.257 56.8896 222.514 55.584 221.501 55.3926ZM201.805 51.6784C200.792 51.4871 199.903 52.4776 199.801 53.8957C199.711 55.3138 200.454 56.6194 201.467 56.8108C202.48 57.0021 203.369 56.0117 203.471 54.5935C203.561 53.1754 202.806 51.8698 201.805 51.6784Z" fill="#3F2207"/>
<path d="M171.597 140.954C171.597 140.954 170.888 143.059 169.109 145.805M168.164 131.68C168.164 131.68 166.498 135.912 163.605 139.873L168.164 131.68Z" stroke="#3F2207" stroke-width="2" stroke-miterlimit="12.5" stroke-linecap="round" stroke-linejoin="round"/>
<path d="M261.536 143.486C261.176 152.963 260.591 161.506 259.758 169.047" stroke="#3F2207" stroke-width="2" stroke-miterlimit="12.5" stroke-linecap="round" stroke-linejoin="round"/>
<path d="M180.116 47.4238C180.116 47.4238 177.707 52.2072 179.182 60.5135M211.236 53.4453C211.236 53.4453 212.047 65.4095 212.351 67.2103C212.643 68.9886 209.301 69.1687 209.301 69.1687L211.236 53.4453ZM216.661 47.5251C217.618 46.4334 224.214 43.8109 225.485 51.4419L216.661 47.5251Z" stroke="#3F2207" stroke-width="2" stroke-miterlimit="12.5" stroke-linecap="round" stroke-linejoin="round"/>
</svg>
