<svg width="450" height="523" viewBox="0 0 450 523" fill="none" xmlns="http://www.w3.org/2000/svg">
<path fill-rule="evenodd" clip-rule="evenodd" d="M203.043 430.406C198.298 431.527 191.677 434.586 184.904 439.046C178.887 443.01 173.926 447.297 170.863 450.981L151.97 421.573L187.147 402.852L203.043 430.406Z" fill="white" stroke="#24245B" stroke-width="8.3333" stroke-miterlimit="12.5" stroke-linecap="round" stroke-linejoin="round"/>
<path fill-rule="evenodd" clip-rule="evenodd" d="M27.2384 479.268L78.6353 468.733L66.0179 299.656L168.057 458.112L209.877 430.557L101.045 237.373L13.7799 224.662C13.7799 224.662 -2.54719 254.565 0.342944 288.324C3.23307 322.084 27.2384 479.268 27.2384 479.268Z" fill="#63A4DA"/>
<path fill-rule="evenodd" clip-rule="evenodd" d="M5.90918 233.237C5.90918 233.237 42.1005 257.689 97.4659 251.808L96.0208 242.005L9.48983 220.354L5.90918 233.237Z" fill="#3F2207"/>
<path fill-rule="evenodd" clip-rule="evenodd" d="M65.6753 300.023L64.64 285.136L81.075 323.958L65.6753 300.023ZM49.758 139.327C42.5974 133.919 36.0407 127.779 30.3467 120.648C39.9014 95.5496 54.0932 92.1026 64.64 85.6825C53.8128 89.7543 39.7935 88.3539 25.1703 114.185C25.1703 114.185 19.1959 106.278 18.0312 102.314C47.2345 63.4707 90.7375 86.9967 116.447 60.1745C130.164 45.8693 141.444 37.5965 151.603 38.7814C164.889 40.3325 177.938 48.6054 184.343 64.1386C185.379 66.6161 185.551 69.3522 184.883 71.959C183.394 77.5604 179.641 88.0308 171.165 96.1959C171.165 96.1959 160.316 97.0577 165.557 125.194C170.626 152.469 160.532 152.555 160.532 152.555L49.758 139.327Z" fill="#3F2207"/>
<path d="M174.529 146.577C174.544 146.604 174.559 146.629 174.572 146.652C173.459 148.992 171.402 151.372 168.883 153.698C166.288 156.094 163.239 158.4 160.311 160.514C159.319 161.231 158.337 161.927 157.393 162.597C155.563 163.895 153.871 165.096 152.5 166.158C151.46 166.964 150.581 167.707 149.955 168.369C149.642 168.701 149.38 169.024 149.192 169.335C149.029 169.606 148.904 169.895 148.869 170.19L112.294 242.743L104.534 244.16C74.3749 247.262 49.7698 243.426 32.7086 238.816C24.176 236.511 17.5307 234.012 13.0217 232.092C10.7673 231.132 9.04707 230.316 7.89223 229.741C7.31481 229.454 6.87876 229.227 6.58796 229.072C6.56348 229.059 6.54003 229.047 6.51761 229.035C22.1609 182.862 34.4069 153.596 42.7417 135.866C46.921 126.977 50.1165 120.988 52.2634 117.225C53.3368 115.343 54.148 114.018 54.689 113.164C54.9595 112.737 55.1626 112.427 55.2973 112.225C55.3647 112.123 55.4151 112.049 55.4491 111.998C55.4656 111.974 55.4796 111.953 55.4894 111.938C55.4932 111.933 55.4983 111.925 55.5034 111.917C63.7982 100.322 80.2627 93.5119 97.7764 92.4537C115.289 91.3955 133.704 96.1 145.826 107.356L146.167 106.99L145.827 107.356C152.941 113.96 160.156 123.828 165.603 132.07C168.324 136.187 170.598 139.889 172.191 142.562C172.988 143.898 173.615 144.977 174.042 145.721C174.255 146.093 174.419 146.382 174.529 146.577Z" fill="white" stroke="#3F2207"/>
<path fill-rule="evenodd" clip-rule="evenodd" d="M384.754 170.329H80.2119C80.2119 170.329 109.286 377.366 115.023 418.278C115.584 422.285 119.013 425.258 123.046 425.258H393.381C400.218 425.258 406.732 422.306 411.218 417.136C415.704 411.987 417.732 405.136 416.783 398.371C407.573 332.877 384.754 170.329 384.754 170.329Z" fill="#C6AFA1"/>
<path fill-rule="evenodd" clip-rule="evenodd" d="M143.041 170.328C143.041 170.328 155.723 195.47 171.036 209.086L181.324 208.914L154.278 170.328C150.827 168.066 147.031 168.454 143.041 170.328Z" fill="#011E61"/>
<path fill-rule="evenodd" clip-rule="evenodd" d="M173.019 148.095L196.679 184.741L237.745 170.328C237.745 170.328 240.915 158.178 254.87 154.989C257.35 154.429 260.866 157.424 260.456 160.31C260.456 160.31 262.375 159.341 264.64 157.51C267.099 155.528 270.377 157.51 270.377 157.51C270.377 157.51 271.326 156.583 272.448 154.903C274.993 151.09 280.557 154.278 278.767 157.51C277.279 160.203 277.257 160.095 277.257 160.095C277.257 160.095 282.196 164.382 269.363 178.127C262.72 185.237 228.729 203.355 218.225 208.633L189.669 223.736C189.669 223.736 172.932 211.822 149.639 170.199" fill="#F99382"/>
<path fill-rule="evenodd" clip-rule="evenodd" d="M175.134 146.652C175.134 146.652 168.793 159.966 149.684 170.35C148.411 170.587 146.233 170.609 143.041 170.35L149.641 149.927" fill="white"/>
<path fill-rule="evenodd" clip-rule="evenodd" d="M149.618 149.905C148.798 156.799 148.626 163.628 149.682 170.328C147.72 172.117 145.498 172.117 143.04 170.328C141.336 162.723 143.579 155.937 149.618 149.905Z" fill="#031C5F"/>
<path fill-rule="evenodd" clip-rule="evenodd" d="M449.911 216.023C450.278 213.481 449.501 210.896 447.797 208.935C446.115 206.996 443.656 205.876 441.068 205.876H154.6C150.114 205.876 146.318 209.172 145.692 213.632C140.882 248.081 121.428 387.146 117.006 418.816C116.769 420.432 117.265 422.069 118.344 423.319C119.422 424.547 120.975 425.258 122.614 425.258H410.484C416.308 425.258 421.247 420.97 422.045 415.218C427.178 378.637 444.756 252.777 449.911 216.023Z" fill="#AEC6F8"/>
<path fill-rule="evenodd" clip-rule="evenodd" d="M98.8686 149.819L111.27 194.932L156.995 176.727L166.7 164.512C168.749 161.948 171.877 160.461 175.155 160.526C179.361 160.591 184.559 160.698 184.559 160.698L187.125 157.984C187.125 157.984 192.517 159.384 190.404 164.749C190.404 164.749 193.553 167.829 189.627 173.388C189.627 173.388 192.474 181.1 181.28 190.343C173.753 196.547 140.107 215.743 118.862 227.678C113.341 230.781 106.827 231.556 100.745 229.833C94.6628 228.109 89.5081 224.059 86.4238 218.522C79.9318 206.824 72.0379 188.339 64.2949 159.492C85.1513 151.822 98.8686 149.819 98.8686 149.819Z" fill="#F99382"/>
<path fill-rule="evenodd" clip-rule="evenodd" d="M98.351 127.952L104.606 154.343C94.4903 159.923 73.224 166.364 62.5909 166.3C62.5909 166.3 56.1637 144.562 57.8675 124.289" fill="white"/>
<path fill-rule="evenodd" clip-rule="evenodd" d="M130.38 75.3201C130.38 75.3201 121.99 85.338 112.672 92.2751C112.672 92.2751 105.382 100.462 113.686 112.419C123.715 126.853 135.383 120.886 137.174 113.711L147.332 99.7509L130.38 75.3201Z" fill="#F99382"/>
<path fill-rule="evenodd" clip-rule="evenodd" d="M123.305 98.8457C123.305 98.8457 129.826 111.772 138.036 112.634L135.448 118.666L131.134 120.39L126.967 117.89C126.967 117.89 120.246 111.358 123.305 98.8457Z" fill="#3F2207"/>
<path fill-rule="evenodd" clip-rule="evenodd" d="M128.093 77.9267C129.538 75.0183 131.371 72.153 133.549 69.3954C145.132 54.8963 162.602 49.5965 172.566 57.5246C182.531 65.4528 181.194 83.6574 169.633 98.1565C160.165 110.027 146.728 115.736 136.698 113.065" fill="#F99382"/>
<path fill-rule="evenodd" clip-rule="evenodd" d="M195.277 96.6481C195.514 96.4327 195.838 96.3465 196.14 96.4111C196.442 96.4758 196.701 96.6912 196.83 96.9928C197.887 98.6301 200.13 101.366 201.467 102.702C201.683 102.853 201.812 103.111 201.812 103.37C201.812 103.65 201.661 103.887 201.424 104.016C199.828 104.986 196.442 106.515 194.414 103.801C192.344 101.086 193.832 98.07 195.277 96.6481Z" fill="white"/>
<path fill-rule="evenodd" clip-rule="evenodd" d="M142.91 65.7976C135.081 59.6792 138.964 48.7995 138.964 48.7995C138.964 48.7995 147.224 33.6971 164.22 42.444C181.215 51.1693 181.431 68.0382 181.431 68.0382C181.431 68.0382 162.99 81.4601 142.91 65.7976Z" fill="#3F2207"/>
<path fill-rule="evenodd" clip-rule="evenodd" d="M142.89 66.0777C143.257 61.1872 137.131 54.5085 129.733 59.2697C120.61 65.1297 125.894 77.4745 128.504 78.8533" fill="#F99382"/>
<path fill-rule="evenodd" clip-rule="evenodd" d="M148.13 95.5928C148.13 95.5928 149.51 101.41 153.565 104.684C154.169 105.158 149.079 108.584 146.512 105.374C142.609 100.462 146.75 96.1098 148.13 95.5928Z" fill="white"/>
<path fill-rule="evenodd" clip-rule="evenodd" d="M170.819 91.1548C170.237 90.5085 169.094 90.7885 168.231 91.7795C167.39 92.7706 167.174 94.1063 167.735 94.7526C168.317 95.3989 169.461 95.1189 170.323 94.1278C171.164 93.1153 171.402 91.8011 170.819 91.1548ZM159.561 82.1279C158.978 81.4816 157.835 81.7617 156.973 82.7527C156.132 83.7437 155.916 85.0794 156.477 85.7257C157.059 86.372 158.202 86.092 159.065 85.1009C159.927 84.1099 160.143 82.7742 159.561 82.1279ZM148.022 33.3524C148.863 33.8695 149.92 33.9341 150.826 33.5463C151.732 33.1585 152.4 32.3183 152.594 31.3489C154.234 22.7744 157.037 3.12631 148.626 0.368692C141.293 -2.04423 133.701 7.82289 135.491 17.2376C137.065 25.4243 143.73 30.7241 148.022 33.3524Z" fill="#3F2207"/>
<path fill-rule="evenodd" clip-rule="evenodd" d="M381.346 71.4635L342.157 39.083L299.236 90.9177L338.426 123.298L381.346 71.4635ZM416.977 158.759L388.55 112.246L327.987 149.194L356.413 195.707L416.977 158.759Z" fill="white"/>
<path d="M299.588 90.8843L342.19 39.4348L380.994 71.4968L338.392 122.946L299.588 90.8843ZM328.33 149.277L388.467 112.59L416.633 158.676L356.497 195.364L328.33 149.277Z" stroke="#3F2207" stroke-opacity="0.5" stroke-width="0.5"/>
<path fill-rule="evenodd" clip-rule="evenodd" d="M381.346 71.4635L342.157 39.083L299.236 90.9177L338.426 123.298L381.346 71.4635ZM416.977 158.759L388.55 112.246L327.987 149.194L356.413 195.707L416.977 158.759Z" fill="white"/>
<path d="M299.588 90.8843L342.19 39.4348L380.994 71.4968L338.392 122.946L299.588 90.8843ZM328.33 149.277L388.467 112.59L416.633 158.676L356.497 195.364L328.33 149.277Z" stroke="#3F2207" stroke-opacity="0.5" stroke-width="0.5"/>
<path fill-rule="evenodd" clip-rule="evenodd" d="M449.415 108.088L418.357 67.7793L364.911 108.864L395.969 149.172L449.415 108.088Z" fill="white"/>
<path d="M365.262 108.909L418.311 68.1297L449.064 108.042L396.015 148.822L365.262 108.909Z" stroke="#3F2207" stroke-opacity="0.5" stroke-width="0.5"/>
<path d="M342.501 38.5226L342.501 83.3322L299.365 91.0897L342.501 38.5226Z" fill="#CC855D"/>
<path d="M418.423 67.8224L409.566 110.739L364.933 109.187L418.423 67.8224Z" fill="#CC855D"/>
<path d="M374.424 121.251L384.776 134.178L375.031 154.043L327.838 148.827L374.424 121.251Z" fill="#CC855D"/>
<path fill-rule="evenodd" clip-rule="evenodd" d="M150.826 86.2643C152.271 87.3846 152.853 89.0865 152.099 90.0559C151.344 91.0254 149.554 90.8961 148.109 89.7759C146.663 88.6556 146.081 86.9537 146.836 86.0058C147.591 85.0148 149.381 85.1441 150.826 86.2643Z" fill="#F99382"/>
<path fill-rule="evenodd" clip-rule="evenodd" d="M31.6624 471.642C34.0349 475.24 34.7682 479.441 33.5388 484.31C29.7644 483.319 27.2841 481.595 26.8096 479.268C26.3351 476.834 28.19 474.119 31.6624 471.642ZM70.3341 463.778C73.5477 464.446 75.9633 465.588 77.2574 467.139C74.1732 469.66 71.3478 469.056 71.1105 468.13C69.4713 466.924 69.4498 465.437 70.3341 463.778ZM170.863 450.981C174.724 451.951 176.902 454.277 176.018 458.995C171.877 460.223 168.857 460.223 167.844 458.694C166.83 457.143 168.038 454.32 170.863 450.981ZM203.043 430.407C206.386 429.609 208.801 429.782 209.686 431.118C210.613 432.518 209.686 434.995 207.4 437.947C203.755 436.654 202.46 434.048 203.043 430.407Z" fill="#EFC2E9"/>
<path fill-rule="evenodd" clip-rule="evenodd" d="M80.4699 467.268C89.507 467.398 102.599 470.371 108.142 485.344L38.6277 518.694L31.6396 471.642C35.9317 468.561 42.6826 465.803 50.5334 464.252C58.1253 462.744 65.2212 462.658 70.3329 463.778L71.1093 468.13C71.1093 468.13 75.0563 467.182 80.4699 467.268Z" fill="#63A4DA"/>
<path fill-rule="evenodd" clip-rule="evenodd" d="M71.1098 468.13C65.2864 465.911 36.9674 471.233 33.5381 484.31L26.7441 469.983C26.7441 469.983 44.0418 451.778 74.0646 459.491C74.0646 459.513 71.1098 468.066 71.1098 468.13Z" fill="#CC855D"/>
<path fill-rule="evenodd" clip-rule="evenodd" d="M170.862 450.981C173.925 447.319 178.886 443.031 184.903 439.046C191.676 434.586 198.297 431.527 203.042 430.407L207.399 437.947C236.3 423.771 247.753 444.755 247.753 444.755L190.77 481.961L170.862 450.981Z" fill="#63A4DA"/>
<path fill-rule="evenodd" clip-rule="evenodd" d="M205.134 434.026C199.677 434.069 178.972 446.435 175.111 457.617L166.829 451.498C166.829 451.498 176.988 432.13 203.754 427.067C203.775 427.046 205.048 433.595 205.134 434.026Z" fill="#CC855D"/>
<path d="M41.6484 467.828C41.6484 467.828 56.1422 461.344 71.2831 464.963M204.186 431.139C204.186 431.139 193.574 432.863 179.62 444.001L204.186 431.139Z" stroke="#EFC2E9" stroke-miterlimit="12.5" stroke-linecap="round" stroke-linejoin="round"/>
<path fill-rule="evenodd" clip-rule="evenodd" d="M68.5212 492.582C87.5227 482.801 105.144 479.117 107.84 484.352C110.536 489.587 97.3147 501.781 78.3131 511.541C59.3116 521.322 41.6904 525.006 38.9944 519.77C36.2984 514.535 49.5197 502.342 68.5212 492.582ZM215.551 457.789C231.253 447.448 245.747 441.674 247.86 444.906C249.996 448.137 238.974 459.168 223.273 469.509C207.571 479.85 193.077 485.623 190.964 482.392C188.828 479.16 199.85 468.13 215.551 457.789Z" fill="#EFC2E9"/>
<path d="M71.3035 467.139C71.3035 467.139 64.8115 468.173 55.5156 473.042M206.751 437.258C206.751 437.258 200.734 440.511 196.183 445.035L206.751 437.258Z" stroke="#EFC2E9" stroke-miterlimit="12.5" stroke-linecap="round" stroke-linejoin="round"/>
<path fill-rule="evenodd" clip-rule="evenodd" d="M200.023 123.858C208.521 113.194 218.96 107.356 223.339 110.846C227.717 114.336 224.374 125.797 215.876 136.461C207.378 147.126 196.939 152.964 192.561 149.474C188.182 145.984 191.526 134.522 200.023 123.858Z" fill="white" stroke="#24245B" stroke-miterlimit="12.5" stroke-linecap="round" stroke-linejoin="round"/>
<path d="M192.993 149.776L178.779 166.3M196.681 184.763L198.514 187.628M100.939 155.722L98.373 127.952M110.559 192.325L112.565 199.348M407.164 178.558L443.657 156.777M283.018 195.707L306.117 180.907M250.774 136.892L271.501 108.562M270.357 157.531C270.357 157.531 264.448 163.822 261.407 166.041C258.387 168.26 254.268 170.35 254.268 170.35L270.357 157.531ZM260.458 160.311C256.575 162.207 253.362 163.693 249.479 165.158L260.458 160.311ZM277.216 160.117C277.216 160.117 274.736 157.725 271.738 162.767C268.74 167.786 266.195 171.061 266.195 171.061C266.195 171.061 261.471 174.357 255.734 176.727L277.216 160.117ZM189.671 178.149C189.671 178.149 189.369 184.44 181.324 190.321L162.927 202.278L189.671 178.149ZM171.92 164.856C171.92 164.856 156.499 176.792 148.799 180.002L171.92 164.856ZM189.671 173.366C189.671 173.366 185.853 179.097 181.863 182.932L189.671 173.366ZM190.555 164.856C190.555 164.856 185.142 171.944 179.534 176.619L190.555 164.856ZM182.165 162.357C182.165 162.357 178.585 167.312 171.92 171.75L182.165 162.357ZM164.76 80.3612C164.76 80.3612 161.978 74.9968 155.399 77.6036L164.76 80.3612ZM165.558 88.0308C165.558 88.0308 162.43 93.6753 160.77 96.6699C160.511 97.1439 160.058 97.4886 159.54 97.6394C159.001 97.7687 158.462 97.6825 157.987 97.4024C157.707 97.2301 157.513 97.1008 157.513 97.1008L165.558 88.0308ZM174.897 90.0344C174.897 90.0344 174.336 86.9752 171.144 85.6826L174.897 90.0344ZM137.735 64.8065C137.735 64.8065 134.09 67.4995 133.184 73.7257L137.735 64.8065ZM131.912 63.7939C131.912 63.7939 131.804 66.7454 134.219 69.8909L131.912 63.7939Z" stroke="#3F2207" stroke-miterlimit="12.5" stroke-linecap="round" stroke-linejoin="round"/>
<path d="M285.769 349.908C278.307 349.381 271.753 347.159 269.311 340.135C267.34 334.477 266.811 332.94 285.086 300.433C286.15 298.547 287.671 296.953 289.514 295.793C291.356 294.634 293.461 293.946 295.64 293.791C304.16 293.196 306.547 297.299 314.459 310.882C321.784 323.464 322.769 326.899 323.192 328.369C324.216 331.422 324.117 334.734 322.912 337.719C321.707 340.704 319.474 343.17 316.606 344.681C306.823 348.573 296.31 350.355 285.769 349.908Z" fill="white"/>
</svg>
